<?xml version="1.0" encoding="UTF-8" standalone="no"?>
<!DOCTYPE svg PUBLIC "-//W3C//DTD SVG 1.1//EN"
 "http://www.w3.org/Graphics/SVG/1.1/DTD/svg11.dtd">
<!-- Generated by graphviz version 2.47.0 (20210316.0004)
 -->
<!-- Title: dependencies Pages: 1 -->
<svg width="504pt" height="211pt"
 viewBox="0.00 0.00 504.00 211.00" xmlns="http://www.w3.org/2000/svg" xmlns:xlink="http://www.w3.org/1999/xlink">
<g id="graph0" class="graph" transform="scale(1 1) rotate(0) translate(4 207)">
<title>dependencies</title>
<polygon fill="white" stroke="transparent" points="-4,4 -4,-207 500,-207 500,4 -4,4"/>
<text text-anchor="start" x="227.01" y="-42.4" font-family="Times-12" font-weight="bold" font-size="14.00">Legend</text>
<polygon fill="#ffffb3" stroke="transparent" points="14,-10 14,-30 34,-30 34,-10 14,-10"/>
<text text-anchor="start" x="37.63" y="-15.4" font-family="Times-12" font-size="14.00"> &#160;Declarations</text>
<polygon fill="#8dd3c7" stroke="transparent" points="127,-10 127,-30 147,-30 147,-10 127,-10"/>
<text text-anchor="start" x="150.73" y="-15.4" font-family="Times-12" font-size="14.00"> &#160;Module</text>
<polygon fill="#80b1d3" stroke="transparent" points="213,-10 213,-30 233,-30 233,-10 213,-10"/>
<text text-anchor="start" x="236.78" y="-15.4" font-family="Times-12" font-size="14.00"> &#160;Bootstrap</text>
<polygon fill="#fdb462" stroke="transparent" points="310,-10 310,-30 330,-30 330,-10 310,-10"/>
<text text-anchor="start" x="333.67" y="-15.4" font-family="Times-12" font-size="14.00"> &#160;Providers</text>
<polygon fill="#fb8072" stroke="transparent" points="406,-10 406,-30 426,-30 426,-10 406,-10"/>
<text text-anchor="start" x="429.73" y="-15.4" font-family="Times-12" font-size="14.00"> &#160;Exports</text>
<g id="clust1" class="cluster">
<title>cluster_ModerationModule</title>
<polygon fill="none" stroke="black" stroke-dasharray="1,5" points="96,-70 96,-195 400,-195 400,-70 96,-70"/>
</g>
<g id="clust6" class="cluster">
<title>cluster_ModerationModule_providers</title>
<polygon fill="none" stroke="black" points="242,-78 242,-130 392,-130 392,-78 242,-78"/>
</g>
<g id="clust3" class="cluster">
<title>cluster_ModerationModule_imports</title>
<polygon fill="none" stroke="black" points="104,-78 104,-130 234,-130 234,-78 104,-78"/>
</g>
<!-- AuditLogModule -->
<g id="node1" class="node">
<title>AuditLogModule</title>
<polygon fill="#8dd3c7" stroke="black" points="225.99,-122 222.99,-126 201.99,-126 198.99,-122 112.01,-122 112.01,-86 225.99,-86 225.99,-122"/>
<text text-anchor="middle" x="169" y="-99.8" font-family="Times,serif" font-size="14.00">AuditLogModule</text>
</g>
<!-- ModerationModule -->
<g id="node2" class="node">
<title>ModerationModule</title>
<polygon fill="#8dd3c7" stroke="black" points="305.37,-187 302.37,-191 281.37,-191 278.37,-187 180.63,-187 180.63,-151 305.37,-151 305.37,-187"/>
<text text-anchor="middle" x="243" y="-164.8" font-family="Times,serif" font-size="14.00">ModerationModule</text>
</g>
<!-- AuditLogModule&#45;&gt;ModerationModule -->
<g id="edge1" class="edge">
<title>AuditLogModule&#45;&gt;ModerationModule</title>
<path fill="none" stroke="black" d="M203.28,-122.11C203.28,-122.11 203.28,-140.99 203.28,-140.99"/>
<polygon fill="black" stroke="black" points="199.78,-140.99 203.28,-150.99 206.78,-140.99 199.78,-140.99"/>
</g>
<!-- PrismaService -->
<g id="node3" class="node">
<title>PrismaService</title>
<ellipse fill="#fdb462" stroke="black" cx="317" cy="-104" rx="66.63" ry="18"/>
<text text-anchor="middle" x="317" y="-99.8" font-family="Times,serif" font-size="14.00">PrismaService</text>
</g>
<!-- PrismaService&#45;&gt;ModerationModule -->
<g id="edge2" class="edge">
<title>PrismaService&#45;&gt;ModerationModule</title>
<path fill="none" stroke="black" d="M277.81,-118.75C277.81,-118.75 277.81,-140.59 277.81,-140.59"/>
<polygon fill="black" stroke="black" points="274.31,-140.59 277.81,-150.59 281.31,-140.59 274.31,-140.59"/>
</g>
</g>
</svg>
