<?xml version="1.0" encoding="UTF-8" standalone="no"?>
<!DOCTYPE svg PUBLIC "-//W3C//DTD SVG 1.1//EN"
 "http://www.w3.org/Graphics/SVG/1.1/DTD/svg11.dtd">
<!-- Generated by graphviz version 2.47.0 (20210316.0004)
 -->
<!-- Title: dependencies Pages: 1 -->
<svg width="504pt" height="284pt"
 viewBox="0.00 0.00 504.00 284.00" xmlns="http://www.w3.org/2000/svg" xmlns:xlink="http://www.w3.org/1999/xlink">
<g id="graph0" class="graph" transform="scale(1 1) rotate(0) translate(4 280)">
<title>dependencies</title>
<polygon fill="white" stroke="transparent" points="-4,4 -4,-280 500,-280 500,4 -4,4"/>
<text text-anchor="start" x="227.01" y="-42.4" font-family="Times-12" font-weight="bold" font-size="14.00">Legend</text>
<polygon fill="#ffffb3" stroke="transparent" points="14,-10 14,-30 34,-30 34,-10 14,-10"/>
<text text-anchor="start" x="37.63" y="-15.4" font-family="Times-12" font-size="14.00"> &#160;Declarations</text>
<polygon fill="#8dd3c7" stroke="transparent" points="127,-10 127,-30 147,-30 147,-10 127,-10"/>
<text text-anchor="start" x="150.73" y="-15.4" font-family="Times-12" font-size="14.00"> &#160;Module</text>
<polygon fill="#80b1d3" stroke="transparent" points="213,-10 213,-30 233,-30 233,-10 213,-10"/>
<text text-anchor="start" x="236.78" y="-15.4" font-family="Times-12" font-size="14.00"> &#160;Bootstrap</text>
<polygon fill="#fdb462" stroke="transparent" points="310,-10 310,-30 330,-30 330,-10 310,-10"/>
<text text-anchor="start" x="333.67" y="-15.4" font-family="Times-12" font-size="14.00"> &#160;Providers</text>
<polygon fill="#fb8072" stroke="transparent" points="406,-10 406,-30 426,-30 426,-10 406,-10"/>
<text text-anchor="start" x="429.73" y="-15.4" font-family="Times-12" font-size="14.00"> &#160;Exports</text>
<g id="clust1" class="cluster">
<title>cluster_UserModule</title>
<polygon fill="none" stroke="black" stroke-dasharray="1,5" points="100.5,-70 100.5,-268 395.5,-268 395.5,-70 100.5,-70"/>
</g>
<g id="clust4" class="cluster">
<title>cluster_UserModule_exports</title>
<polygon fill="none" stroke="black" points="192.5,-208 192.5,-260 292.5,-260 292.5,-208 192.5,-208"/>
</g>
<g id="clust6" class="cluster">
<title>cluster_UserModule_providers</title>
<polygon fill="none" stroke="black" points="108.5,-78 108.5,-130 387.5,-130 387.5,-78 108.5,-78"/>
</g>
<!-- SelfService  -->
<g id="node1" class="node">
<title>SelfService </title>
<polygon fill="#fb8072" stroke="black" points="284.53,-252 200.47,-252 200.47,-216 284.53,-216 284.53,-252"/>
<text text-anchor="middle" x="242.5" y="-229.8" font-family="Times,serif" font-size="14.00">SelfService </text>
</g>
<!-- UserModule -->
<g id="node2" class="node">
<title>UserModule</title>
<polygon fill="#8dd3c7" stroke="black" points="285.48,-187 282.48,-191 261.48,-191 258.48,-187 199.52,-187 199.52,-151 285.48,-151 285.48,-187"/>
<text text-anchor="middle" x="242.5" y="-164.8" font-family="Times,serif" font-size="14.00">UserModule</text>
</g>
<!-- UserModule&#45;&gt;SelfService  -->
<g id="edge1" class="edge">
<title>UserModule&#45;&gt;SelfService </title>
<path fill="none" stroke="black" stroke-dasharray="5,2" d="M242.5,-187.11C242.5,-187.11 242.5,-205.99 242.5,-205.99"/>
<polygon fill="black" stroke="black" points="239,-205.99 242.5,-215.99 246,-205.99 239,-205.99"/>
</g>
<!-- PrismaService -->
<g id="node3" class="node">
<title>PrismaService</title>
<ellipse fill="#fdb462" stroke="black" cx="312.5" cy="-104" rx="66.63" ry="18"/>
<text text-anchor="middle" x="312.5" y="-99.8" font-family="Times,serif" font-size="14.00">PrismaService</text>
</g>
<!-- PrismaService&#45;&gt;UserModule -->
<g id="edge2" class="edge">
<title>PrismaService&#45;&gt;UserModule</title>
<path fill="none" stroke="black" d="M265.59,-116.84C265.59,-116.84 265.59,-140.52 265.59,-140.52"/>
<polygon fill="black" stroke="black" points="262.09,-140.52 265.59,-150.52 269.09,-140.52 262.09,-140.52"/>
</g>
<!-- SelfService -->
<g id="node4" class="node">
<title>SelfService</title>
<ellipse fill="#fdb462" stroke="black" cx="172.5" cy="-104" rx="55.59" ry="18"/>
<text text-anchor="middle" x="172.5" y="-99.8" font-family="Times,serif" font-size="14.00">SelfService</text>
</g>
<!-- SelfService&#45;&gt;UserModule -->
<g id="edge3" class="edge">
<title>SelfService&#45;&gt;UserModule</title>
<path fill="none" stroke="black" d="M213.78,-116.23C213.78,-116.23 213.78,-140.68 213.78,-140.68"/>
<polygon fill="black" stroke="black" points="210.28,-140.68 213.78,-150.68 217.28,-140.68 210.28,-140.68"/>
</g>
</g>
</svg>
