<?xml version="1.0" encoding="UTF-8" standalone="no"?>
<!DOCTYPE svg PUBLIC "-//W3C//DTD SVG 1.1//EN"
 "http://www.w3.org/Graphics/SVG/1.1/DTD/svg11.dtd">
<!-- Generated by graphviz version 2.47.0 (20210316.0004)
 -->
<!-- Title: dependencies Pages: 1 -->
<svg width="504pt" height="284pt"
 viewBox="0.00 0.00 504.00 284.00" xmlns="http://www.w3.org/2000/svg" xmlns:xlink="http://www.w3.org/1999/xlink">
<g id="graph0" class="graph" transform="scale(1 1) rotate(0) translate(4 280)">
<title>dependencies</title>
<polygon fill="white" stroke="transparent" points="-4,4 -4,-280 500,-280 500,4 -4,4"/>
<text text-anchor="start" x="227.01" y="-42.4" font-family="Times-12" font-weight="bold" font-size="14.00">Legend</text>
<polygon fill="#ffffb3" stroke="transparent" points="14,-10 14,-30 34,-30 34,-10 14,-10"/>
<text text-anchor="start" x="37.63" y="-15.4" font-family="Times-12" font-size="14.00"> &#160;Declarations</text>
<polygon fill="#8dd3c7" stroke="transparent" points="127,-10 127,-30 147,-30 147,-10 127,-10"/>
<text text-anchor="start" x="150.73" y="-15.4" font-family="Times-12" font-size="14.00"> &#160;Module</text>
<polygon fill="#80b1d3" stroke="transparent" points="213,-10 213,-30 233,-30 233,-10 213,-10"/>
<text text-anchor="start" x="236.78" y="-15.4" font-family="Times-12" font-size="14.00"> &#160;Bootstrap</text>
<polygon fill="#fdb462" stroke="transparent" points="310,-10 310,-30 330,-30 330,-10 310,-10"/>
<text text-anchor="start" x="333.67" y="-15.4" font-family="Times-12" font-size="14.00"> &#160;Providers</text>
<polygon fill="#fb8072" stroke="transparent" points="406,-10 406,-30 426,-30 426,-10 406,-10"/>
<text text-anchor="start" x="429.73" y="-15.4" font-family="Times-12" font-size="14.00"> &#160;Exports</text>
<g id="clust1" class="cluster">
<title>cluster_GuildRestrictedChannelModule</title>
<polygon fill="none" stroke="black" stroke-dasharray="1,5" points="23,-70 23,-268 473,-268 473,-70 23,-70"/>
</g>
<g id="clust6" class="cluster">
<title>cluster_GuildRestrictedChannelModule_providers</title>
<polygon fill="none" stroke="black" points="31,-78 31,-130 465,-130 465,-78 31,-78"/>
</g>
<g id="clust4" class="cluster">
<title>cluster_GuildRestrictedChannelModule_exports</title>
<polygon fill="none" stroke="black" points="124,-208 124,-260 336,-260 336,-208 124,-208"/>
</g>
<!-- GuildRestrictedChannelService  -->
<g id="node1" class="node">
<title>GuildRestrictedChannelService </title>
<polygon fill="#fb8072" stroke="black" points="328.28,-252 131.72,-252 131.72,-216 328.28,-216 328.28,-252"/>
<text text-anchor="middle" x="230" y="-229.8" font-family="Times,serif" font-size="14.00">GuildRestrictedChannelService </text>
</g>
<!-- GuildRestrictedChannelModule -->
<g id="node2" class="node">
<title>GuildRestrictedChannelModule</title>
<polygon fill="#8dd3c7" stroke="black" points="327.35,-187 324.35,-191 303.35,-191 300.35,-187 132.65,-187 132.65,-151 327.35,-151 327.35,-187"/>
<text text-anchor="middle" x="230" y="-164.8" font-family="Times,serif" font-size="14.00">GuildRestrictedChannelModule</text>
</g>
<!-- GuildRestrictedChannelModule&#45;&gt;GuildRestrictedChannelService  -->
<g id="edge1" class="edge">
<title>GuildRestrictedChannelModule&#45;&gt;GuildRestrictedChannelService </title>
<path fill="none" stroke="black" stroke-dasharray="5,2" d="M230,-187.11C230,-187.11 230,-205.99 230,-205.99"/>
<polygon fill="black" stroke="black" points="226.5,-205.99 230,-215.99 233.5,-205.99 226.5,-205.99"/>
</g>
<!-- GuildRestrictedChannelService -->
<g id="node3" class="node">
<title>GuildRestrictedChannelService</title>
<ellipse fill="#fdb462" stroke="black" cx="324" cy="-104" rx="133.14" ry="18"/>
<text text-anchor="middle" x="324" y="-99.8" font-family="Times,serif" font-size="14.00">GuildRestrictedChannelService</text>
</g>
<!-- GuildRestrictedChannelService&#45;&gt;GuildRestrictedChannelModule -->
<g id="edge2" class="edge">
<title>GuildRestrictedChannelService&#45;&gt;GuildRestrictedChannelModule</title>
<path fill="none" stroke="black" d="M259.05,-119.73C259.05,-119.73 259.05,-140.65 259.05,-140.65"/>
<polygon fill="black" stroke="black" points="255.55,-140.65 259.05,-150.65 262.55,-140.65 255.55,-140.65"/>
</g>
<!-- PrismaService -->
<g id="node4" class="node">
<title>PrismaService</title>
<ellipse fill="#fdb462" stroke="black" cx="106" cy="-104" rx="66.63" ry="18"/>
<text text-anchor="middle" x="106" y="-99.8" font-family="Times,serif" font-size="14.00">PrismaService</text>
</g>
<!-- PrismaService&#45;&gt;GuildRestrictedChannelModule -->
<g id="edge3" class="edge">
<title>PrismaService&#45;&gt;GuildRestrictedChannelModule</title>
<path fill="none" stroke="black" d="M152.69,-117.15C152.69,-117.15 152.69,-140.69 152.69,-140.69"/>
<polygon fill="black" stroke="black" points="149.19,-140.69 152.69,-150.69 156.19,-140.69 149.19,-140.69"/>
</g>
</g>
</svg>
