<?xml version="1.0" encoding="UTF-8" standalone="no"?>
<!DOCTYPE svg PUBLIC "-//W3C//DTD SVG 1.1//EN"
 "http://www.w3.org/Graphics/SVG/1.1/DTD/svg11.dtd">
<!-- Generated by graphviz version 2.47.0 (20210316.0004)
 -->
<!-- Title: dependencies Pages: 1 -->
<svg width="1141pt" height="211pt"
 viewBox="0.00 0.00 1141.00 211.00" xmlns="http://www.w3.org/2000/svg" xmlns:xlink="http://www.w3.org/1999/xlink">
<g id="graph0" class="graph" transform="scale(1 1) rotate(0) translate(4 207)">
<title>dependencies</title>
<polygon fill="white" stroke="transparent" points="-4,4 -4,-207 1137,-207 1137,4 -4,4"/>
<text text-anchor="start" x="545.51" y="-42.4" font-family="Times-12" font-weight="bold" font-size="14.00">Legend</text>
<polygon fill="#ffffb3" stroke="transparent" points="332.5,-10 332.5,-30 352.5,-30 352.5,-10 332.5,-10"/>
<text text-anchor="start" x="356.13" y="-15.4" font-family="Times-12" font-size="14.00"> &#160;Declarations</text>
<polygon fill="#8dd3c7" stroke="transparent" points="445.5,-10 445.5,-30 465.5,-30 465.5,-10 445.5,-10"/>
<text text-anchor="start" x="469.23" y="-15.4" font-family="Times-12" font-size="14.00"> &#160;Module</text>
<polygon fill="#80b1d3" stroke="transparent" points="531.5,-10 531.5,-30 551.5,-30 551.5,-10 531.5,-10"/>
<text text-anchor="start" x="555.28" y="-15.4" font-family="Times-12" font-size="14.00"> &#160;Bootstrap</text>
<polygon fill="#fdb462" stroke="transparent" points="628.5,-10 628.5,-30 648.5,-30 648.5,-10 628.5,-10"/>
<text text-anchor="start" x="652.17" y="-15.4" font-family="Times-12" font-size="14.00"> &#160;Providers</text>
<polygon fill="#fb8072" stroke="transparent" points="724.5,-10 724.5,-30 744.5,-30 744.5,-10 724.5,-10"/>
<text text-anchor="start" x="748.23" y="-15.4" font-family="Times-12" font-size="14.00"> &#160;Exports</text>
<g id="clust1" class="cluster">
<title>cluster_TasksModule</title>
<polygon fill="none" stroke="black" stroke-dasharray="1,5" points="8,-70 8,-195 1125,-195 1125,-70 8,-70"/>
</g>
<g id="clust6" class="cluster">
<title>cluster_TasksModule_providers</title>
<polygon fill="none" stroke="black" points="16,-78 16,-130 1117,-130 1117,-78 16,-78"/>
</g>
<!-- GuildRestrictedChannelService -->
<g id="node1" class="node">
<title>GuildRestrictedChannelService</title>
<ellipse fill="#fdb462" stroke="black" cx="976" cy="-104" rx="133.14" ry="18"/>
<text text-anchor="middle" x="976" y="-99.8" font-family="Times,serif" font-size="14.00">GuildRestrictedChannelService</text>
</g>
<!-- TasksModule -->
<g id="node7" class="node">
<title>TasksModule</title>
<polygon fill="#8dd3c7" stroke="black" points="540.21,-187 537.21,-191 516.21,-191 513.21,-187 447.79,-187 447.79,-151 540.21,-151 540.21,-187"/>
<text text-anchor="middle" x="494" y="-164.8" font-family="Times,serif" font-size="14.00">TasksModule</text>
</g>
<!-- GuildRestrictedChannelService&#45;&gt;TasksModule -->
<g id="edge1" class="edge">
<title>GuildRestrictedChannelService&#45;&gt;TasksModule</title>
<path fill="none" stroke="black" d="M976,-122.28C976,-143.32 976,-175 976,-175 976,-175 550.22,-175 550.22,-175"/>
<polygon fill="black" stroke="black" points="550.22,-171.5 540.22,-175 550.22,-178.5 550.22,-171.5"/>
</g>
<!-- GuildService -->
<g id="node2" class="node">
<title>GuildService</title>
<ellipse fill="#fdb462" stroke="black" cx="763" cy="-104" rx="61.98" ry="18"/>
<text text-anchor="middle" x="763" y="-99.8" font-family="Times,serif" font-size="14.00">GuildService</text>
</g>
<!-- GuildService&#45;&gt;TasksModule -->
<g id="edge2" class="edge">
<title>GuildService&#45;&gt;TasksModule</title>
<path fill="none" stroke="black" d="M763,-122.02C763,-139.37 763,-163 763,-163 763,-163 550.24,-163 550.24,-163"/>
<polygon fill="black" stroke="black" points="550.24,-159.5 540.24,-163 550.24,-166.5 550.24,-159.5"/>
</g>
<!-- GuildSettingsService -->
<g id="node3" class="node">
<title>GuildSettingsService</title>
<ellipse fill="#fdb462" stroke="black" cx="590" cy="-104" rx="93.21" ry="18"/>
<text text-anchor="middle" x="590" y="-99.8" font-family="Times,serif" font-size="14.00">GuildSettingsService</text>
</g>
<!-- GuildSettingsService&#45;&gt;TasksModule -->
<g id="edge3" class="edge">
<title>GuildSettingsService&#45;&gt;TasksModule</title>
<path fill="none" stroke="black" d="M518.5,-115.62C518.5,-115.62 518.5,-140.85 518.5,-140.85"/>
<polygon fill="black" stroke="black" points="515,-140.85 518.5,-150.85 522,-140.85 515,-140.85"/>
</g>
<!-- GuildUserService -->
<g id="node4" class="node">
<title>GuildUserService</title>
<ellipse fill="#fdb462" stroke="black" cx="399" cy="-104" rx="80.43" ry="18"/>
<text text-anchor="middle" x="399" y="-99.8" font-family="Times,serif" font-size="14.00">GuildUserService</text>
</g>
<!-- GuildUserService&#45;&gt;TasksModule -->
<g id="edge4" class="edge">
<title>GuildUserService&#45;&gt;TasksModule</title>
<path fill="none" stroke="black" d="M463.56,-114.73C463.56,-114.73 463.56,-140.87 463.56,-140.87"/>
<polygon fill="black" stroke="black" points="460.06,-140.87 463.56,-150.87 467.06,-140.87 460.06,-140.87"/>
</g>
<!-- PrismaService -->
<g id="node5" class="node">
<title>PrismaService</title>
<ellipse fill="#fdb462" stroke="black" cx="234" cy="-104" rx="66.63" ry="18"/>
<text text-anchor="middle" x="234" y="-99.8" font-family="Times,serif" font-size="14.00">PrismaService</text>
</g>
<!-- PrismaService&#45;&gt;TasksModule -->
<g id="edge5" class="edge">
<title>PrismaService&#45;&gt;TasksModule</title>
<path fill="none" stroke="black" d="M234,-122.02C234,-139.37 234,-163 234,-163 234,-163 437.82,-163 437.82,-163"/>
<polygon fill="black" stroke="black" points="437.82,-166.5 447.82,-163 437.82,-159.5 437.82,-166.5"/>
</g>
<!-- TasksService -->
<g id="node6" class="node">
<title>TasksService</title>
<ellipse fill="#fdb462" stroke="black" cx="87" cy="-104" rx="62.54" ry="18"/>
<text text-anchor="middle" x="87" y="-99.8" font-family="Times,serif" font-size="14.00">TasksService</text>
</g>
<!-- TasksService&#45;&gt;TasksModule -->
<g id="edge6" class="edge">
<title>TasksService&#45;&gt;TasksModule</title>
<path fill="none" stroke="black" d="M87,-122.28C87,-143.32 87,-175 87,-175 87,-175 437.71,-175 437.71,-175"/>
<polygon fill="black" stroke="black" points="437.71,-178.5 447.71,-175 437.71,-171.5 437.71,-178.5"/>
</g>
</g>
</svg>
