<?xml version="1.0" encoding="UTF-8" standalone="no"?>
<!DOCTYPE svg PUBLIC "-//W3C//DTD SVG 1.1//EN"
 "http://www.w3.org/Graphics/SVG/1.1/DTD/svg11.dtd">
<!-- Generated by graphviz version 2.47.0 (20210316.0004)
 -->
<!-- Title: dependencies Pages: 1 -->
<svg width="504pt" height="284pt"
 viewBox="0.00 0.00 504.00 284.00" xmlns="http://www.w3.org/2000/svg" xmlns:xlink="http://www.w3.org/1999/xlink">
<g id="graph0" class="graph" transform="scale(1 1) rotate(0) translate(4 280)">
<title>dependencies</title>
<polygon fill="white" stroke="transparent" points="-4,4 -4,-280 500,-280 500,4 -4,4"/>
<text text-anchor="start" x="227.01" y="-42.4" font-family="Times-12" font-weight="bold" font-size="14.00">Legend</text>
<polygon fill="#ffffb3" stroke="transparent" points="14,-10 14,-30 34,-30 34,-10 14,-10"/>
<text text-anchor="start" x="37.63" y="-15.4" font-family="Times-12" font-size="14.00"> &#160;Declarations</text>
<polygon fill="#8dd3c7" stroke="transparent" points="127,-10 127,-30 147,-30 147,-10 127,-10"/>
<text text-anchor="start" x="150.73" y="-15.4" font-family="Times-12" font-size="14.00"> &#160;Module</text>
<polygon fill="#80b1d3" stroke="transparent" points="213,-10 213,-30 233,-30 233,-10 213,-10"/>
<text text-anchor="start" x="236.78" y="-15.4" font-family="Times-12" font-size="14.00"> &#160;Bootstrap</text>
<polygon fill="#fdb462" stroke="transparent" points="310,-10 310,-30 330,-30 330,-10 310,-10"/>
<text text-anchor="start" x="333.67" y="-15.4" font-family="Times-12" font-size="14.00"> &#160;Providers</text>
<polygon fill="#fb8072" stroke="transparent" points="406,-10 406,-30 426,-30 426,-10 406,-10"/>
<text text-anchor="start" x="429.73" y="-15.4" font-family="Times-12" font-size="14.00"> &#160;Exports</text>
<g id="clust1" class="cluster">
<title>cluster_AuditLogModule</title>
<polygon fill="none" stroke="black" stroke-dasharray="1,5" points="10.5,-70 10.5,-268 485.5,-268 485.5,-70 10.5,-70"/>
</g>
<g id="clust4" class="cluster">
<title>cluster_AuditLogModule_exports</title>
<polygon fill="none" stroke="black" points="189.5,-208 189.5,-260 321.5,-260 321.5,-208 189.5,-208"/>
</g>
<g id="clust6" class="cluster">
<title>cluster_AuditLogModule_providers</title>
<polygon fill="none" stroke="black" points="18.5,-78 18.5,-130 477.5,-130 477.5,-78 18.5,-78"/>
</g>
<!-- AuditLogService  -->
<g id="node1" class="node">
<title>AuditLogService </title>
<polygon fill="#fb8072" stroke="black" points="313.42,-252 197.58,-252 197.58,-216 313.42,-216 313.42,-252"/>
<text text-anchor="middle" x="255.5" y="-229.8" font-family="Times,serif" font-size="14.00">AuditLogService </text>
</g>
<!-- AuditLogModule -->
<g id="node2" class="node">
<title>AuditLogModule</title>
<polygon fill="#8dd3c7" stroke="black" points="312.49,-187 309.49,-191 288.49,-191 285.49,-187 198.51,-187 198.51,-151 312.49,-151 312.49,-187"/>
<text text-anchor="middle" x="255.5" y="-164.8" font-family="Times,serif" font-size="14.00">AuditLogModule</text>
</g>
<!-- AuditLogModule&#45;&gt;AuditLogService  -->
<g id="edge1" class="edge">
<title>AuditLogModule&#45;&gt;AuditLogService </title>
<path fill="none" stroke="black" stroke-dasharray="5,2" d="M255.5,-187.11C255.5,-187.11 255.5,-205.99 255.5,-205.99"/>
<polygon fill="black" stroke="black" points="252,-205.99 255.5,-215.99 259,-205.99 252,-205.99"/>
</g>
<!-- AuditEvents -->
<g id="node3" class="node">
<title>AuditEvents</title>
<ellipse fill="#fdb462" stroke="black" cx="410.5" cy="-104" rx="59.13" ry="18"/>
<text text-anchor="middle" x="410.5" y="-99.8" font-family="Times,serif" font-size="14.00">AuditEvents</text>
</g>
<!-- AuditEvents&#45;&gt;AuditLogModule -->
<g id="edge2" class="edge">
<title>AuditEvents&#45;&gt;AuditLogModule</title>
<path fill="none" stroke="black" d="M410.5,-122.11C410.5,-141.34 410.5,-169 410.5,-169 410.5,-169 322.78,-169 322.78,-169"/>
<polygon fill="black" stroke="black" points="322.78,-165.5 312.78,-169 322.78,-172.5 322.78,-165.5"/>
</g>
<!-- AuditLogService -->
<g id="node4" class="node">
<title>AuditLogService</title>
<ellipse fill="#fdb462" stroke="black" cx="255.5" cy="-104" rx="77.59" ry="18"/>
<text text-anchor="middle" x="255.5" y="-99.8" font-family="Times,serif" font-size="14.00">AuditLogService</text>
</g>
<!-- AuditLogService&#45;&gt;AuditLogModule -->
<g id="edge3" class="edge">
<title>AuditLogService&#45;&gt;AuditLogModule</title>
<path fill="none" stroke="black" d="M255.5,-122.11C255.5,-122.11 255.5,-140.99 255.5,-140.99"/>
<polygon fill="black" stroke="black" points="252,-140.99 255.5,-150.99 259,-140.99 252,-140.99"/>
</g>
<!-- PrismaService -->
<g id="node5" class="node">
<title>PrismaService</title>
<ellipse fill="#fdb462" stroke="black" cx="93.5" cy="-104" rx="66.63" ry="18"/>
<text text-anchor="middle" x="93.5" y="-99.8" font-family="Times,serif" font-size="14.00">PrismaService</text>
</g>
<!-- PrismaService&#45;&gt;AuditLogModule -->
<g id="edge4" class="edge">
<title>PrismaService&#45;&gt;AuditLogModule</title>
<path fill="none" stroke="black" d="M93.5,-122.11C93.5,-141.34 93.5,-169 93.5,-169 93.5,-169 188.38,-169 188.38,-169"/>
<polygon fill="black" stroke="black" points="188.38,-172.5 198.38,-169 188.38,-165.5 188.38,-172.5"/>
</g>
</g>
</svg>
