<?xml version="1.0" encoding="UTF-8" standalone="no"?>
<!DOCTYPE svg PUBLIC "-//W3C//DTD SVG 1.1//EN"
 "http://www.w3.org/Graphics/SVG/1.1/DTD/svg11.dtd">
<!-- Generated by graphviz version 2.47.0 (20210316.0004)
 -->
<!-- Title: dependencies Pages: 1 -->
<svg width="874pt" height="211pt"
 viewBox="0.00 0.00 874.00 211.00" xmlns="http://www.w3.org/2000/svg" xmlns:xlink="http://www.w3.org/1999/xlink">
<g id="graph0" class="graph" transform="scale(1 1) rotate(0) translate(4 207)">
<title>dependencies</title>
<polygon fill="white" stroke="transparent" points="-4,4 -4,-207 870,-207 870,4 -4,4"/>
<text text-anchor="start" x="412.01" y="-42.4" font-family="Times-12" font-weight="bold" font-size="14.00">Legend</text>
<polygon fill="#ffffb3" stroke="transparent" points="199,-10 199,-30 219,-30 219,-10 199,-10"/>
<text text-anchor="start" x="222.63" y="-15.4" font-family="Times-12" font-size="14.00"> &#160;Declarations</text>
<polygon fill="#8dd3c7" stroke="transparent" points="312,-10 312,-30 332,-30 332,-10 312,-10"/>
<text text-anchor="start" x="335.73" y="-15.4" font-family="Times-12" font-size="14.00"> &#160;Module</text>
<polygon fill="#80b1d3" stroke="transparent" points="398,-10 398,-30 418,-30 418,-10 398,-10"/>
<text text-anchor="start" x="421.78" y="-15.4" font-family="Times-12" font-size="14.00"> &#160;Bootstrap</text>
<polygon fill="#fdb462" stroke="transparent" points="495,-10 495,-30 515,-30 515,-10 495,-10"/>
<text text-anchor="start" x="518.67" y="-15.4" font-family="Times-12" font-size="14.00"> &#160;Providers</text>
<polygon fill="#fb8072" stroke="transparent" points="591,-10 591,-30 611,-30 611,-10 591,-10"/>
<text text-anchor="start" x="614.73" y="-15.4" font-family="Times-12" font-size="14.00"> &#160;Exports</text>
<g id="clust1" class="cluster">
<title>cluster_AppModule</title>
<polygon fill="none" stroke="black" stroke-dasharray="1,5" points="8,-70 8,-195 858,-195 858,-70 8,-70"/>
</g>
<g id="clust6" class="cluster">
<title>cluster_AppModule_providers</title>
<polygon fill="none" stroke="black" points="569,-78 569,-130 850,-130 850,-78 569,-78"/>
</g>
<g id="clust3" class="cluster">
<title>cluster_AppModule_imports</title>
<polygon fill="none" stroke="black" points="16,-78 16,-130 561,-130 561,-78 16,-78"/>
</g>
<!-- BotModule -->
<g id="node1" class="node">
<title>BotModule</title>
<polygon fill="#8dd3c7" stroke="black" points="552.78,-122 549.78,-126 528.78,-126 525.78,-122 473.22,-122 473.22,-86 552.78,-86 552.78,-122"/>
<text text-anchor="middle" x="513" y="-99.8" font-family="Times,serif" font-size="14.00">BotModule</text>
</g>
<!-- AppModule -->
<g id="node6" class="node">
<title>AppModule</title>
<polygon fill="#8dd3c7" stroke="black" points="450.66,-187 447.66,-191 426.66,-191 423.66,-187 367.34,-187 367.34,-151 450.66,-151 450.66,-187"/>
<text text-anchor="middle" x="409" y="-164.8" font-family="Times,serif" font-size="14.00">AppModule</text>
</g>
<!-- BotModule&#45;&gt;AppModule -->
<g id="edge1" class="edge">
<title>BotModule&#45;&gt;AppModule</title>
<path fill="none" stroke="black" d="M513,-122.03C513,-138.4 513,-160 513,-160 513,-160 460.7,-160 460.7,-160"/>
<polygon fill="black" stroke="black" points="460.7,-156.5 450.7,-160 460.7,-163.5 460.7,-156.5"/>
</g>
<!-- GuildModule -->
<g id="node2" class="node">
<title>GuildModule</title>
<polygon fill="#8dd3c7" stroke="black" points="454.94,-122 451.94,-126 430.94,-126 427.94,-122 363.06,-122 363.06,-86 454.94,-86 454.94,-122"/>
<text text-anchor="middle" x="409" y="-99.8" font-family="Times,serif" font-size="14.00">GuildModule</text>
</g>
<!-- GuildModule&#45;&gt;AppModule -->
<g id="edge2" class="edge">
<title>GuildModule&#45;&gt;AppModule</title>
<path fill="none" stroke="black" d="M409,-122.11C409,-122.11 409,-140.99 409,-140.99"/>
<polygon fill="black" stroke="black" points="405.5,-140.99 409,-150.99 412.5,-140.99 405.5,-140.99"/>
</g>
<!-- JwtAuthModule -->
<g id="node3" class="node">
<title>JwtAuthModule</title>
<polygon fill="#8dd3c7" stroke="black" points="345.49,-122 342.49,-126 321.49,-126 318.49,-122 238.51,-122 238.51,-86 345.49,-86 345.49,-122"/>
<text text-anchor="middle" x="292" y="-99.8" font-family="Times,serif" font-size="14.00">JwtAuthModule</text>
</g>
<!-- JwtAuthModule&#45;&gt;AppModule -->
<g id="edge3" class="edge">
<title>JwtAuthModule&#45;&gt;AppModule</title>
<path fill="none" stroke="black" d="M292,-122.03C292,-138.4 292,-160 292,-160 292,-160 357.09,-160 357.09,-160"/>
<polygon fill="black" stroke="black" points="357.09,-163.5 367.09,-160 357.09,-156.5 357.09,-163.5"/>
</g>
<!-- TasksModule -->
<g id="node4" class="node">
<title>TasksModule</title>
<polygon fill="#8dd3c7" stroke="black" points="220.21,-122 217.21,-126 196.21,-126 193.21,-122 127.79,-122 127.79,-86 220.21,-86 220.21,-122"/>
<text text-anchor="middle" x="174" y="-99.8" font-family="Times,serif" font-size="14.00">TasksModule</text>
</g>
<!-- TasksModule&#45;&gt;AppModule -->
<g id="edge4" class="edge">
<title>TasksModule&#45;&gt;AppModule</title>
<path fill="none" stroke="black" d="M174,-122.11C174,-141.34 174,-169 174,-169 174,-169 357.26,-169 357.26,-169"/>
<polygon fill="black" stroke="black" points="357.26,-172.5 367.26,-169 357.26,-165.5 357.26,-172.5"/>
</g>
<!-- UserModule -->
<g id="node5" class="node">
<title>UserModule</title>
<polygon fill="#8dd3c7" stroke="black" points="109.98,-122 106.98,-126 85.98,-126 82.98,-122 24.02,-122 24.02,-86 109.98,-86 109.98,-122"/>
<text text-anchor="middle" x="67" y="-99.8" font-family="Times,serif" font-size="14.00">UserModule</text>
</g>
<!-- UserModule&#45;&gt;AppModule -->
<g id="edge5" class="edge">
<title>UserModule&#45;&gt;AppModule</title>
<path fill="none" stroke="black" d="M67,-122.29C67,-144.21 67,-178 67,-178 67,-178 357.06,-178 357.06,-178"/>
<polygon fill="black" stroke="black" points="357.06,-181.5 367.06,-178 357.06,-174.5 357.06,-181.5"/>
</g>
<!-- AppService -->
<g id="node7" class="node">
<title>AppService</title>
<ellipse fill="#fdb462" stroke="black" cx="785" cy="-104" rx="56.74" ry="18"/>
<text text-anchor="middle" x="785" y="-99.8" font-family="Times,serif" font-size="14.00">AppService</text>
</g>
<!-- AppService&#45;&gt;AppModule -->
<g id="edge6" class="edge">
<title>AppService&#45;&gt;AppModule</title>
<path fill="none" stroke="black" d="M785,-122.29C785,-144.21 785,-178 785,-178 785,-178 460.68,-178 460.68,-178"/>
<polygon fill="black" stroke="black" points="460.68,-174.5 450.68,-178 460.68,-181.5 460.68,-174.5"/>
</g>
<!-- PrismaService -->
<g id="node8" class="node">
<title>PrismaService</title>
<ellipse fill="#fdb462" stroke="black" cx="644" cy="-104" rx="66.63" ry="18"/>
<text text-anchor="middle" x="644" y="-99.8" font-family="Times,serif" font-size="14.00">PrismaService</text>
</g>
<!-- PrismaService&#45;&gt;AppModule -->
<g id="edge7" class="edge">
<title>PrismaService&#45;&gt;AppModule</title>
<path fill="none" stroke="black" d="M644,-122.11C644,-141.34 644,-169 644,-169 644,-169 460.74,-169 460.74,-169"/>
<polygon fill="black" stroke="black" points="460.74,-165.5 450.74,-169 460.74,-172.5 460.74,-165.5"/>
</g>
</g>
</svg>
