<?xml version="1.0" encoding="UTF-8" standalone="no"?>
<!DOCTYPE svg PUBLIC "-//W3C//DTD SVG 1.1//EN"
 "http://www.w3.org/Graphics/SVG/1.1/DTD/svg11.dtd">
<!-- Generated by graphviz version 2.47.0 (20210316.0004)
 -->
<!-- Title: dependencies Pages: 1 -->
<svg width="874pt" height="211pt"
 viewBox="0.00 0.00 874.00 211.00" xmlns="http://www.w3.org/2000/svg" xmlns:xlink="http://www.w3.org/1999/xlink">
<g id="graph0" class="graph" transform="scale(1 1) rotate(0) translate(4 207)">
<title>dependencies</title>
<polygon fill="white" stroke="transparent" points="-4,4 -4,-207 870,-207 870,4 -4,4"/>
<text text-anchor="start" x="412.01" y="-42.4" font-family="Times-12" font-weight="bold" font-size="14.00">Legend</text>
<polygon fill="#ffffb3" stroke="transparent" points="199,-10 199,-30 219,-30 219,-10 199,-10"/>
<text text-anchor="start" x="222.63" y="-15.4" font-family="Times-12" font-size="14.00"> &#160;Declarations</text>
<polygon fill="#8dd3c7" stroke="transparent" points="312,-10 312,-30 332,-30 332,-10 312,-10"/>
<text text-anchor="start" x="335.73" y="-15.4" font-family="Times-12" font-size="14.00"> &#160;Module</text>
<polygon fill="#80b1d3" stroke="transparent" points="398,-10 398,-30 418,-30 418,-10 398,-10"/>
<text text-anchor="start" x="421.78" y="-15.4" font-family="Times-12" font-size="14.00"> &#160;Bootstrap</text>
<polygon fill="#fdb462" stroke="transparent" points="495,-10 495,-30 515,-30 515,-10 495,-10"/>
<text text-anchor="start" x="518.67" y="-15.4" font-family="Times-12" font-size="14.00"> &#160;Providers</text>
<polygon fill="#fb8072" stroke="transparent" points="591,-10 591,-30 611,-30 611,-10 591,-10"/>
<text text-anchor="start" x="614.73" y="-15.4" font-family="Times-12" font-size="14.00"> &#160;Exports</text>
<g id="clust1" class="cluster">
<title>cluster_AppModule</title>
<polygon fill="none" stroke="black" stroke-dasharray="1,5" points="8,-70 8,-195 858,-195 858,-70 8,-70"/>
</g>
<g id="clust3" class="cluster">
<title>cluster_AppModule_imports</title>
<polygon fill="none" stroke="black" points="305,-78 305,-130 850,-130 850,-78 305,-78"/>
</g>
<g id="clust6" class="cluster">
<title>cluster_AppModule_providers</title>
<polygon fill="none" stroke="black" points="16,-78 16,-130 297,-130 297,-78 16,-78"/>
</g>
<!-- BotModule -->
<g id="node1" class="node">
<title>BotModule</title>
<polygon fill="#8dd3c7" stroke="black" points="841.78,-122 838.78,-126 817.78,-126 814.78,-122 762.22,-122 762.22,-86 841.78,-86 841.78,-122"/>
<text text-anchor="middle" x="802" y="-99.8" font-family="Times,serif" font-size="14.00">BotModule</text>
</g>
<!-- AppModule -->
<g id="node6" class="node">
<title>AppModule</title>
<polygon fill="#8dd3c7" stroke="black" points="504.66,-187 501.66,-191 480.66,-191 477.66,-187 421.34,-187 421.34,-151 504.66,-151 504.66,-187"/>
<text text-anchor="middle" x="463" y="-164.8" font-family="Times,serif" font-size="14.00">AppModule</text>
</g>
<!-- BotModule&#45;&gt;AppModule -->
<g id="edge1" class="edge">
<title>BotModule&#45;&gt;AppModule</title>
<path fill="none" stroke="black" d="M802,-122.29C802,-144.21 802,-178 802,-178 802,-178 514.91,-178 514.91,-178"/>
<polygon fill="black" stroke="black" points="514.91,-174.5 504.91,-178 514.91,-181.5 514.91,-174.5"/>
</g>
<!-- GuildModule -->
<g id="node2" class="node">
<title>GuildModule</title>
<polygon fill="#8dd3c7" stroke="black" points="743.94,-122 740.94,-126 719.94,-126 716.94,-122 652.06,-122 652.06,-86 743.94,-86 743.94,-122"/>
<text text-anchor="middle" x="698" y="-99.8" font-family="Times,serif" font-size="14.00">GuildModule</text>
</g>
<!-- GuildModule&#45;&gt;AppModule -->
<g id="edge2" class="edge">
<title>GuildModule&#45;&gt;AppModule</title>
<path fill="none" stroke="black" d="M698,-122.11C698,-141.34 698,-169 698,-169 698,-169 514.74,-169 514.74,-169"/>
<polygon fill="black" stroke="black" points="514.74,-165.5 504.74,-169 514.74,-172.5 514.74,-165.5"/>
</g>
<!-- JwtAuthModule -->
<g id="node3" class="node">
<title>JwtAuthModule</title>
<polygon fill="#8dd3c7" stroke="black" points="634.49,-122 631.49,-126 610.49,-126 607.49,-122 527.51,-122 527.51,-86 634.49,-86 634.49,-122"/>
<text text-anchor="middle" x="581" y="-99.8" font-family="Times,serif" font-size="14.00">JwtAuthModule</text>
</g>
<!-- JwtAuthModule&#45;&gt;AppModule -->
<g id="edge3" class="edge">
<title>JwtAuthModule&#45;&gt;AppModule</title>
<path fill="none" stroke="black" d="M581,-122.03C581,-138.4 581,-160 581,-160 581,-160 514.93,-160 514.93,-160"/>
<polygon fill="black" stroke="black" points="514.93,-156.5 504.93,-160 514.93,-163.5 514.93,-156.5"/>
</g>
<!-- TasksModule -->
<g id="node4" class="node">
<title>TasksModule</title>
<polygon fill="#8dd3c7" stroke="black" points="509.21,-122 506.21,-126 485.21,-126 482.21,-122 416.79,-122 416.79,-86 509.21,-86 509.21,-122"/>
<text text-anchor="middle" x="463" y="-99.8" font-family="Times,serif" font-size="14.00">TasksModule</text>
</g>
<!-- TasksModule&#45;&gt;AppModule -->
<g id="edge4" class="edge">
<title>TasksModule&#45;&gt;AppModule</title>
<path fill="none" stroke="black" d="M463,-122.11C463,-122.11 463,-140.99 463,-140.99"/>
<polygon fill="black" stroke="black" points="459.5,-140.99 463,-150.99 466.5,-140.99 459.5,-140.99"/>
</g>
<!-- UserModule -->
<g id="node5" class="node">
<title>UserModule</title>
<polygon fill="#8dd3c7" stroke="black" points="398.98,-122 395.98,-126 374.98,-126 371.98,-122 313.02,-122 313.02,-86 398.98,-86 398.98,-122"/>
<text text-anchor="middle" x="356" y="-99.8" font-family="Times,serif" font-size="14.00">UserModule</text>
</g>
<!-- UserModule&#45;&gt;AppModule -->
<g id="edge5" class="edge">
<title>UserModule&#45;&gt;AppModule</title>
<path fill="none" stroke="black" d="M356,-122.03C356,-138.4 356,-160 356,-160 356,-160 411.32,-160 411.32,-160"/>
<polygon fill="black" stroke="black" points="411.32,-163.5 421.32,-160 411.32,-156.5 411.32,-163.5"/>
</g>
<!-- AppService -->
<g id="node7" class="node">
<title>AppService</title>
<ellipse fill="#fdb462" stroke="black" cx="232" cy="-104" rx="56.74" ry="18"/>
<text text-anchor="middle" x="232" y="-99.8" font-family="Times,serif" font-size="14.00">AppService</text>
</g>
<!-- AppService&#45;&gt;AppModule -->
<g id="edge6" class="edge">
<title>AppService&#45;&gt;AppModule</title>
<path fill="none" stroke="black" d="M232,-122.11C232,-141.34 232,-169 232,-169 232,-169 411.17,-169 411.17,-169"/>
<polygon fill="black" stroke="black" points="411.17,-172.5 421.17,-169 411.17,-165.5 411.17,-172.5"/>
</g>
<!-- PrismaService -->
<g id="node8" class="node">
<title>PrismaService</title>
<ellipse fill="#fdb462" stroke="black" cx="91" cy="-104" rx="66.63" ry="18"/>
<text text-anchor="middle" x="91" y="-99.8" font-family="Times,serif" font-size="14.00">PrismaService</text>
</g>
<!-- PrismaService&#45;&gt;AppModule -->
<g id="edge7" class="edge">
<title>PrismaService&#45;&gt;AppModule</title>
<path fill="none" stroke="black" d="M91,-122.29C91,-144.21 91,-178 91,-178 91,-178 411.05,-178 411.05,-178"/>
<polygon fill="black" stroke="black" points="411.05,-181.5 421.05,-178 411.05,-174.5 411.05,-181.5"/>
</g>
</g>
</svg>
