<?xml version="1.0" encoding="UTF-8" standalone="no"?>
<!DOCTYPE svg PUBLIC "-//W3C//DTD SVG 1.1//EN"
 "http://www.w3.org/Graphics/SVG/1.1/DTD/svg11.dtd">
<!-- Generated by graphviz version 2.47.0 (20210316.0004)
 -->
<!-- Title: dependencies Pages: 1 -->
<svg width="572pt" height="284pt"
 viewBox="0.00 0.00 572.00 284.00" xmlns="http://www.w3.org/2000/svg" xmlns:xlink="http://www.w3.org/1999/xlink">
<g id="graph0" class="graph" transform="scale(1 1) rotate(0) translate(4 280)">
<title>dependencies</title>
<polygon fill="white" stroke="transparent" points="-4,4 -4,-280 568,-280 568,4 -4,4"/>
<text text-anchor="start" x="261.01" y="-42.4" font-family="Times-12" font-weight="bold" font-size="14.00">Legend</text>
<polygon fill="#ffffb3" stroke="transparent" points="48,-10 48,-30 68,-30 68,-10 48,-10"/>
<text text-anchor="start" x="71.63" y="-15.4" font-family="Times-12" font-size="14.00"> &#160;Declarations</text>
<polygon fill="#8dd3c7" stroke="transparent" points="161,-10 161,-30 181,-30 181,-10 161,-10"/>
<text text-anchor="start" x="184.73" y="-15.4" font-family="Times-12" font-size="14.00"> &#160;Module</text>
<polygon fill="#80b1d3" stroke="transparent" points="247,-10 247,-30 267,-30 267,-10 247,-10"/>
<text text-anchor="start" x="270.78" y="-15.4" font-family="Times-12" font-size="14.00"> &#160;Bootstrap</text>
<polygon fill="#fdb462" stroke="transparent" points="344,-10 344,-30 364,-30 364,-10 344,-10"/>
<text text-anchor="start" x="367.67" y="-15.4" font-family="Times-12" font-size="14.00"> &#160;Providers</text>
<polygon fill="#fb8072" stroke="transparent" points="440,-10 440,-30 460,-30 460,-10 440,-10"/>
<text text-anchor="start" x="463.73" y="-15.4" font-family="Times-12" font-size="14.00"> &#160;Exports</text>
<g id="clust1" class="cluster">
<title>cluster_GuildUserModule</title>
<polygon fill="none" stroke="black" stroke-dasharray="1,5" points="8,-70 8,-268 556,-268 556,-70 8,-70"/>
</g>
<g id="clust4" class="cluster">
<title>cluster_GuildUserModule_exports</title>
<polygon fill="none" stroke="black" points="188,-208 188,-260 324,-260 324,-208 188,-208"/>
</g>
<g id="clust6" class="cluster">
<title>cluster_GuildUserModule_providers</title>
<polygon fill="none" stroke="black" points="16,-78 16,-130 548,-130 548,-78 16,-78"/>
</g>
<!-- GuildUserService  -->
<g id="node1" class="node">
<title>GuildUserService </title>
<polygon fill="#fb8072" stroke="black" points="315.79,-252 196.21,-252 196.21,-216 315.79,-216 315.79,-252"/>
<text text-anchor="middle" x="256" y="-229.8" font-family="Times,serif" font-size="14.00">GuildUserService </text>
</g>
<!-- GuildUserModule -->
<g id="node2" class="node">
<title>GuildUserModule</title>
<polygon fill="#8dd3c7" stroke="black" points="314.86,-187 311.86,-191 290.86,-191 287.86,-187 197.14,-187 197.14,-151 314.86,-151 314.86,-187"/>
<text text-anchor="middle" x="256" y="-164.8" font-family="Times,serif" font-size="14.00">GuildUserModule</text>
</g>
<!-- GuildUserModule&#45;&gt;GuildUserService  -->
<g id="edge1" class="edge">
<title>GuildUserModule&#45;&gt;GuildUserService </title>
<path fill="none" stroke="black" stroke-dasharray="5,2" d="M256,-187.11C256,-187.11 256,-205.99 256,-205.99"/>
<polygon fill="black" stroke="black" points="252.5,-205.99 256,-215.99 259.5,-205.99 252.5,-205.99"/>
</g>
<!-- GuildSettingsService -->
<g id="node3" class="node">
<title>GuildSettingsService</title>
<ellipse fill="#fdb462" stroke="black" cx="447" cy="-104" rx="93.21" ry="18"/>
<text text-anchor="middle" x="447" y="-99.8" font-family="Times,serif" font-size="14.00">GuildSettingsService</text>
</g>
<!-- GuildSettingsService&#45;&gt;GuildUserModule -->
<g id="edge2" class="edge">
<title>GuildSettingsService&#45;&gt;GuildUserModule</title>
<path fill="none" stroke="black" d="M447,-122.11C447,-141.34 447,-169 447,-169 447,-169 324.86,-169 324.86,-169"/>
<polygon fill="black" stroke="black" points="324.86,-165.5 314.86,-169 324.86,-172.5 324.86,-165.5"/>
</g>
<!-- GuildUserService -->
<g id="node4" class="node">
<title>GuildUserService</title>
<ellipse fill="#fdb462" stroke="black" cx="256" cy="-104" rx="80.43" ry="18"/>
<text text-anchor="middle" x="256" y="-99.8" font-family="Times,serif" font-size="14.00">GuildUserService</text>
</g>
<!-- GuildUserService&#45;&gt;GuildUserModule -->
<g id="edge3" class="edge">
<title>GuildUserService&#45;&gt;GuildUserModule</title>
<path fill="none" stroke="black" d="M256,-122.11C256,-122.11 256,-140.99 256,-140.99"/>
<polygon fill="black" stroke="black" points="252.5,-140.99 256,-150.99 259.5,-140.99 252.5,-140.99"/>
</g>
<!-- PrismaService -->
<g id="node5" class="node">
<title>PrismaService</title>
<ellipse fill="#fdb462" stroke="black" cx="91" cy="-104" rx="66.63" ry="18"/>
<text text-anchor="middle" x="91" y="-99.8" font-family="Times,serif" font-size="14.00">PrismaService</text>
</g>
<!-- PrismaService&#45;&gt;GuildUserModule -->
<g id="edge4" class="edge">
<title>PrismaService&#45;&gt;GuildUserModule</title>
<path fill="none" stroke="black" d="M91,-122.11C91,-141.34 91,-169 91,-169 91,-169 186.9,-169 186.9,-169"/>
<polygon fill="black" stroke="black" points="186.9,-172.5 196.9,-169 186.9,-165.5 186.9,-172.5"/>
</g>
</g>
</svg>
