<?xml version="1.0" encoding="UTF-8" standalone="no"?>
<!DOCTYPE svg PUBLIC "-//W3C//DTD SVG 1.1//EN"
 "http://www.w3.org/Graphics/SVG/1.1/DTD/svg11.dtd">
<!-- Generated by graphviz version 2.47.0 (20210316.0004)
 -->
<!-- Title: dependencies Pages: 1 -->
<svg width="844pt" height="284pt"
 viewBox="0.00 0.00 844.00 284.00" xmlns="http://www.w3.org/2000/svg" xmlns:xlink="http://www.w3.org/1999/xlink">
<g id="graph0" class="graph" transform="scale(1 1) rotate(0) translate(4 280)">
<title>dependencies</title>
<polygon fill="white" stroke="transparent" points="-4,4 -4,-280 840,-280 840,4 -4,4"/>
<text text-anchor="start" x="397.01" y="-42.4" font-family="Times-12" font-weight="bold" font-size="14.00">Legend</text>
<polygon fill="#ffffb3" stroke="transparent" points="184,-10 184,-30 204,-30 204,-10 184,-10"/>
<text text-anchor="start" x="207.63" y="-15.4" font-family="Times-12" font-size="14.00"> &#160;Declarations</text>
<polygon fill="#8dd3c7" stroke="transparent" points="297,-10 297,-30 317,-30 317,-10 297,-10"/>
<text text-anchor="start" x="320.73" y="-15.4" font-family="Times-12" font-size="14.00"> &#160;Module</text>
<polygon fill="#80b1d3" stroke="transparent" points="383,-10 383,-30 403,-30 403,-10 383,-10"/>
<text text-anchor="start" x="406.78" y="-15.4" font-family="Times-12" font-size="14.00"> &#160;Bootstrap</text>
<polygon fill="#fdb462" stroke="transparent" points="480,-10 480,-30 500,-30 500,-10 480,-10"/>
<text text-anchor="start" x="503.67" y="-15.4" font-family="Times-12" font-size="14.00"> &#160;Providers</text>
<polygon fill="#fb8072" stroke="transparent" points="576,-10 576,-30 596,-30 596,-10 576,-10"/>
<text text-anchor="start" x="599.73" y="-15.4" font-family="Times-12" font-size="14.00"> &#160;Exports</text>
<g id="clust1" class="cluster">
<title>cluster_JwtAuthModule</title>
<polygon fill="none" stroke="black" stroke-dasharray="1,5" points="8,-70 8,-268 828,-268 828,-70 8,-70"/>
</g>
<g id="clust4" class="cluster">
<title>cluster_JwtAuthModule_exports</title>
<polygon fill="none" stroke="black" points="349,-208 349,-260 473,-260 473,-208 349,-208"/>
</g>
<g id="clust6" class="cluster">
<title>cluster_JwtAuthModule_providers</title>
<polygon fill="none" stroke="black" points="16,-78 16,-130 820,-130 820,-78 16,-78"/>
</g>
<!-- JwtAuthService  -->
<g id="node1" class="node">
<title>JwtAuthService </title>
<polygon fill="#fb8072" stroke="black" points="465.42,-252 356.58,-252 356.58,-216 465.42,-216 465.42,-252"/>
<text text-anchor="middle" x="411" y="-229.8" font-family="Times,serif" font-size="14.00">JwtAuthService </text>
</g>
<!-- JwtAuthModule -->
<g id="node2" class="node">
<title>JwtAuthModule</title>
<polygon fill="#8dd3c7" stroke="black" points="464.49,-187 461.49,-191 440.49,-191 437.49,-187 357.51,-187 357.51,-151 464.49,-151 464.49,-187"/>
<text text-anchor="middle" x="411" y="-164.8" font-family="Times,serif" font-size="14.00">JwtAuthModule</text>
</g>
<!-- JwtAuthModule&#45;&gt;JwtAuthService  -->
<g id="edge1" class="edge">
<title>JwtAuthModule&#45;&gt;JwtAuthService </title>
<path fill="none" stroke="black" stroke-dasharray="5,2" d="M411,-187.11C411,-187.11 411,-205.99 411,-205.99"/>
<polygon fill="black" stroke="black" points="407.5,-205.99 411,-215.99 414.5,-205.99 407.5,-205.99"/>
</g>
<!-- JwtAuthService -->
<g id="node3" class="node">
<title>JwtAuthService</title>
<ellipse fill="#fdb462" stroke="black" cx="739" cy="-104" rx="72.93" ry="18"/>
<text text-anchor="middle" x="739" y="-99.8" font-family="Times,serif" font-size="14.00">JwtAuthService</text>
</g>
<!-- JwtAuthService&#45;&gt;JwtAuthModule -->
<g id="edge2" class="edge">
<title>JwtAuthService&#45;&gt;JwtAuthModule</title>
<path fill="none" stroke="black" d="M739,-122.28C739,-143.32 739,-175 739,-175 739,-175 474.8,-175 474.8,-175"/>
<polygon fill="black" stroke="black" points="474.8,-171.5 464.8,-175 474.8,-178.5 474.8,-171.5"/>
</g>
<!-- JwtAuthStrategy -->
<g id="node4" class="node">
<title>JwtAuthStrategy</title>
<ellipse fill="#fdb462" stroke="black" cx="572" cy="-104" rx="75.88" ry="18"/>
<text text-anchor="middle" x="572" y="-99.8" font-family="Times,serif" font-size="14.00">JwtAuthStrategy</text>
</g>
<!-- JwtAuthStrategy&#45;&gt;JwtAuthModule -->
<g id="edge3" class="edge">
<title>JwtAuthStrategy&#45;&gt;JwtAuthModule</title>
<path fill="none" stroke="black" d="M572,-122.02C572,-139.37 572,-163 572,-163 572,-163 474.61,-163 474.61,-163"/>
<polygon fill="black" stroke="black" points="474.61,-159.5 464.61,-163 474.61,-166.5 474.61,-159.5"/>
</g>
<!-- PrismaService -->
<g id="node5" class="node">
<title>PrismaService</title>
<ellipse fill="#fdb462" stroke="black" cx="411" cy="-104" rx="66.63" ry="18"/>
<text text-anchor="middle" x="411" y="-99.8" font-family="Times,serif" font-size="14.00">PrismaService</text>
</g>
<!-- PrismaService&#45;&gt;JwtAuthModule -->
<g id="edge4" class="edge">
<title>PrismaService&#45;&gt;JwtAuthModule</title>
<path fill="none" stroke="black" d="M411,-122.11C411,-122.11 411,-140.99 411,-140.99"/>
<polygon fill="black" stroke="black" points="407.5,-140.99 411,-150.99 414.5,-140.99 407.5,-140.99"/>
</g>
<!-- RefreshJwtStrategy -->
<g id="node6" class="node">
<title>RefreshJwtStrategy</title>
<ellipse fill="#fdb462" stroke="black" cx="240" cy="-104" rx="86.81" ry="18"/>
<text text-anchor="middle" x="240" y="-99.8" font-family="Times,serif" font-size="14.00">RefreshJwtStrategy</text>
</g>
<!-- RefreshJwtStrategy&#45;&gt;JwtAuthModule -->
<g id="edge5" class="edge">
<title>RefreshJwtStrategy&#45;&gt;JwtAuthModule</title>
<path fill="none" stroke="black" d="M240,-122.02C240,-139.37 240,-163 240,-163 240,-163 347.36,-163 347.36,-163"/>
<polygon fill="black" stroke="black" points="347.36,-166.5 357.36,-163 347.36,-159.5 347.36,-166.5"/>
</g>
<!-- SelfService -->
<g id="node7" class="node">
<title>SelfService</title>
<ellipse fill="#fdb462" stroke="black" cx="80" cy="-104" rx="55.59" ry="18"/>
<text text-anchor="middle" x="80" y="-99.8" font-family="Times,serif" font-size="14.00">SelfService</text>
</g>
<!-- SelfService&#45;&gt;JwtAuthModule -->
<g id="edge6" class="edge">
<title>SelfService&#45;&gt;JwtAuthModule</title>
<path fill="none" stroke="black" d="M80,-122.28C80,-143.32 80,-175 80,-175 80,-175 347.45,-175 347.45,-175"/>
<polygon fill="black" stroke="black" points="347.45,-178.5 357.45,-175 347.45,-171.5 347.45,-178.5"/>
</g>
</g>
</svg>
