<?xml version="1.0" encoding="UTF-8" standalone="no"?>
<!DOCTYPE svg PUBLIC "-//W3C//DTD SVG 1.1//EN"
 "http://www.w3.org/Graphics/SVG/1.1/DTD/svg11.dtd">
<!-- Generated by graphviz version 2.47.0 (20210316.0004)
 -->
<!-- Title: dependencies Pages: 1 -->
<svg width="820pt" height="211pt"
 viewBox="0.00 0.00 820.00 211.00" xmlns="http://www.w3.org/2000/svg" xmlns:xlink="http://www.w3.org/1999/xlink">
<g id="graph0" class="graph" transform="scale(1 1) rotate(0) translate(4 207)">
<title>dependencies</title>
<polygon fill="white" stroke="transparent" points="-4,4 -4,-207 816,-207 816,4 -4,4"/>
<text text-anchor="start" x="385.01" y="-42.4" font-family="Times-12" font-weight="bold" font-size="14.00">Legend</text>
<polygon fill="#ffffb3" stroke="transparent" points="172,-10 172,-30 192,-30 192,-10 172,-10"/>
<text text-anchor="start" x="195.63" y="-15.4" font-family="Times-12" font-size="14.00"> &#160;Declarations</text>
<polygon fill="#8dd3c7" stroke="transparent" points="285,-10 285,-30 305,-30 305,-10 285,-10"/>
<text text-anchor="start" x="308.73" y="-15.4" font-family="Times-12" font-size="14.00"> &#160;Module</text>
<polygon fill="#80b1d3" stroke="transparent" points="371,-10 371,-30 391,-30 391,-10 371,-10"/>
<text text-anchor="start" x="394.78" y="-15.4" font-family="Times-12" font-size="14.00"> &#160;Bootstrap</text>
<polygon fill="#fdb462" stroke="transparent" points="468,-10 468,-30 488,-30 488,-10 468,-10"/>
<text text-anchor="start" x="491.67" y="-15.4" font-family="Times-12" font-size="14.00"> &#160;Providers</text>
<polygon fill="#fb8072" stroke="transparent" points="564,-10 564,-30 584,-30 584,-10 564,-10"/>
<text text-anchor="start" x="587.73" y="-15.4" font-family="Times-12" font-size="14.00"> &#160;Exports</text>
<g id="clust1" class="cluster">
<title>cluster_BotModule</title>
<polygon fill="none" stroke="black" stroke-dasharray="1,5" points="8,-70 8,-195 804,-195 804,-70 8,-70"/>
</g>
<g id="clust6" class="cluster">
<title>cluster_BotModule_providers</title>
<polygon fill="none" stroke="black" points="16,-78 16,-130 796,-130 796,-78 16,-78"/>
</g>
<!-- GuildRestrictedChannelService -->
<g id="node1" class="node">
<title>GuildRestrictedChannelService</title>
<ellipse fill="#fdb462" stroke="black" cx="655" cy="-104" rx="133.14" ry="18"/>
<text text-anchor="middle" x="655" y="-99.8" font-family="Times,serif" font-size="14.00">GuildRestrictedChannelService</text>
</g>
<!-- BotModule -->
<g id="node5" class="node">
<title>BotModule</title>
<polygon fill="#8dd3c7" stroke="black" points="394.78,-187 391.78,-191 370.78,-191 367.78,-187 315.22,-187 315.22,-151 394.78,-151 394.78,-187"/>
<text text-anchor="middle" x="355" y="-164.8" font-family="Times,serif" font-size="14.00">BotModule</text>
</g>
<!-- GuildRestrictedChannelService&#45;&gt;BotModule -->
<g id="edge1" class="edge">
<title>GuildRestrictedChannelService&#45;&gt;BotModule</title>
<path fill="none" stroke="black" d="M655,-122.11C655,-141.34 655,-169 655,-169 655,-169 404.84,-169 404.84,-169"/>
<polygon fill="black" stroke="black" points="404.84,-165.5 394.84,-169 404.84,-172.5 404.84,-165.5"/>
</g>
<!-- GuildService -->
<g id="node2" class="node">
<title>GuildService</title>
<ellipse fill="#fdb462" stroke="black" cx="442" cy="-104" rx="61.98" ry="18"/>
<text text-anchor="middle" x="442" y="-99.8" font-family="Times,serif" font-size="14.00">GuildService</text>
</g>
<!-- GuildService&#45;&gt;BotModule -->
<g id="edge2" class="edge">
<title>GuildService&#45;&gt;BotModule</title>
<path fill="none" stroke="black" d="M387.45,-112.77C387.45,-112.77 387.45,-140.8 387.45,-140.8"/>
<polygon fill="black" stroke="black" points="383.95,-140.8 387.45,-150.8 390.95,-140.8 383.95,-140.8"/>
</g>
<!-- GuildSettingsService -->
<g id="node3" class="node">
<title>GuildSettingsService</title>
<ellipse fill="#fdb462" stroke="black" cx="269" cy="-104" rx="93.21" ry="18"/>
<text text-anchor="middle" x="269" y="-99.8" font-family="Times,serif" font-size="14.00">GuildSettingsService</text>
</g>
<!-- GuildSettingsService&#45;&gt;BotModule -->
<g id="edge3" class="edge">
<title>GuildSettingsService&#45;&gt;BotModule</title>
<path fill="none" stroke="black" d="M338.61,-116.23C338.61,-116.23 338.61,-140.68 338.61,-140.68"/>
<polygon fill="black" stroke="black" points="335.11,-140.68 338.61,-150.68 342.11,-140.68 335.11,-140.68"/>
</g>
<!-- PrismaService -->
<g id="node4" class="node">
<title>PrismaService</title>
<ellipse fill="#fdb462" stroke="black" cx="91" cy="-104" rx="66.63" ry="18"/>
<text text-anchor="middle" x="91" y="-99.8" font-family="Times,serif" font-size="14.00">PrismaService</text>
</g>
<!-- PrismaService&#45;&gt;BotModule -->
<g id="edge4" class="edge">
<title>PrismaService&#45;&gt;BotModule</title>
<path fill="none" stroke="black" d="M91,-122.11C91,-141.34 91,-169 91,-169 91,-169 305.19,-169 305.19,-169"/>
<polygon fill="black" stroke="black" points="305.19,-172.5 315.19,-169 305.19,-165.5 305.19,-172.5"/>
</g>
</g>
</svg>
