<?xml version="1.0" encoding="UTF-8" standalone="no"?>
<!DOCTYPE svg PUBLIC "-//W3C//DTD SVG 1.1//EN"
 "http://www.w3.org/Graphics/SVG/1.1/DTD/svg11.dtd">
<!-- Generated by graphviz version 2.47.0 (20210316.0004)
 -->
<!-- Title: dependencies Pages: 1 -->
<svg width="2280pt" height="284pt"
 viewBox="0.00 0.00 2280.00 284.00" xmlns="http://www.w3.org/2000/svg" xmlns:xlink="http://www.w3.org/1999/xlink">
<g id="graph0" class="graph" transform="scale(1 1) rotate(0) translate(4 280)">
<title>dependencies</title>
<polygon fill="white" stroke="transparent" points="-4,4 -4,-280 2276,-280 2276,4 -4,4"/>
<text text-anchor="start" x="1115.01" y="-42.4" font-family="Times-12" font-weight="bold" font-size="14.00">Legend</text>
<polygon fill="#ffffb3" stroke="transparent" points="902,-10 902,-30 922,-30 922,-10 902,-10"/>
<text text-anchor="start" x="925.63" y="-15.4" font-family="Times-12" font-size="14.00"> &#160;Declarations</text>
<polygon fill="#8dd3c7" stroke="transparent" points="1015,-10 1015,-30 1035,-30 1035,-10 1015,-10"/>
<text text-anchor="start" x="1038.73" y="-15.4" font-family="Times-12" font-size="14.00"> &#160;Module</text>
<polygon fill="#80b1d3" stroke="transparent" points="1101,-10 1101,-30 1121,-30 1121,-10 1101,-10"/>
<text text-anchor="start" x="1124.78" y="-15.4" font-family="Times-12" font-size="14.00"> &#160;Bootstrap</text>
<polygon fill="#fdb462" stroke="transparent" points="1198,-10 1198,-30 1218,-30 1218,-10 1198,-10"/>
<text text-anchor="start" x="1221.67" y="-15.4" font-family="Times-12" font-size="14.00"> &#160;Providers</text>
<polygon fill="#fb8072" stroke="transparent" points="1294,-10 1294,-30 1314,-30 1314,-10 1294,-10"/>
<text text-anchor="start" x="1317.73" y="-15.4" font-family="Times-12" font-size="14.00"> &#160;Exports</text>
<g id="clust1" class="cluster">
<title>cluster_GuildModule</title>
<polygon fill="none" stroke="black" stroke-dasharray="1,5" points="8,-70 8,-268 2264,-268 2264,-70 8,-70"/>
</g>
<g id="clust3" class="cluster">
<title>cluster_GuildModule_imports</title>
<polygon fill="none" stroke="black" points="1392,-78 1392,-130 2256,-130 2256,-78 1392,-78"/>
</g>
<g id="clust4" class="cluster">
<title>cluster_GuildModule_exports</title>
<polygon fill="none" stroke="black" points="1131,-208 1131,-260 1241,-260 1241,-208 1131,-208"/>
</g>
<g id="clust6" class="cluster">
<title>cluster_GuildModule_providers</title>
<polygon fill="none" stroke="black" points="16,-78 16,-130 1384,-130 1384,-78 16,-78"/>
</g>
<!-- GuildAutoDeleteChannelModule -->
<g id="node1" class="node">
<title>GuildAutoDeleteChannelModule</title>
<polygon fill="#8dd3c7" stroke="black" points="2248.12,-122 2245.12,-126 2224.12,-126 2221.12,-122 2045.88,-122 2045.88,-86 2248.12,-86 2248.12,-122"/>
<text text-anchor="middle" x="2147" y="-99.8" font-family="Times,serif" font-size="14.00">GuildAutoDeleteChannelModule</text>
</g>
<!-- GuildModule -->
<g id="node6" class="node">
<title>GuildModule</title>
<polygon fill="#8dd3c7" stroke="black" points="1231.94,-187 1228.94,-191 1207.94,-191 1204.94,-187 1140.06,-187 1140.06,-151 1231.94,-151 1231.94,-187"/>
<text text-anchor="middle" x="1186" y="-164.8" font-family="Times,serif" font-size="14.00">GuildModule</text>
</g>
<!-- GuildAutoDeleteChannelModule&#45;&gt;GuildModule -->
<g id="edge1" class="edge">
<title>GuildAutoDeleteChannelModule&#45;&gt;GuildModule</title>
<path fill="none" stroke="black" d="M2147,-122.25C2147,-145.02 2147,-181 2147,-181 2147,-181 1242.03,-181 1242.03,-181"/>
<polygon fill="black" stroke="black" points="1242.03,-177.5 1232.03,-181 1242.03,-184.5 1242.03,-177.5"/>
</g>
<!-- GuildRestrictedChannelModule -->
<g id="node2" class="node">
<title>GuildRestrictedChannelModule</title>
<polygon fill="#8dd3c7" stroke="black" points="2027.35,-122 2024.35,-126 2003.35,-126 2000.35,-122 1832.65,-122 1832.65,-86 2027.35,-86 2027.35,-122"/>
<text text-anchor="middle" x="1930" y="-99.8" font-family="Times,serif" font-size="14.00">GuildRestrictedChannelModule</text>
</g>
<!-- GuildRestrictedChannelModule&#45;&gt;GuildModule -->
<g id="edge2" class="edge">
<title>GuildRestrictedChannelModule&#45;&gt;GuildModule</title>
<path fill="none" stroke="black" d="M1930,-122.28C1930,-143.32 1930,-175 1930,-175 1930,-175 1241.98,-175 1241.98,-175"/>
<polygon fill="black" stroke="black" points="1241.98,-171.5 1231.98,-175 1241.98,-178.5 1241.98,-171.5"/>
</g>
<!-- GuildSettingsModule -->
<g id="node3" class="node">
<title>GuildSettingsModule</title>
<polygon fill="#8dd3c7" stroke="black" points="1814.05,-122 1811.05,-126 1790.05,-126 1787.05,-122 1677.95,-122 1677.95,-86 1814.05,-86 1814.05,-122"/>
<text text-anchor="middle" x="1746" y="-99.8" font-family="Times,serif" font-size="14.00">GuildSettingsModule</text>
</g>
<!-- GuildSettingsModule&#45;&gt;GuildModule -->
<g id="edge3" class="edge">
<title>GuildSettingsModule&#45;&gt;GuildModule</title>
<path fill="none" stroke="black" d="M1746,-122.11C1746,-141.34 1746,-169 1746,-169 1746,-169 1241.83,-169 1241.83,-169"/>
<polygon fill="black" stroke="black" points="1241.83,-165.5 1231.83,-169 1241.83,-172.5 1241.83,-165.5"/>
</g>
<!-- GuildUserModule -->
<g id="node4" class="node">
<title>GuildUserModule</title>
<polygon fill="#8dd3c7" stroke="black" points="1659.86,-122 1656.86,-126 1635.86,-126 1632.86,-122 1542.14,-122 1542.14,-86 1659.86,-86 1659.86,-122"/>
<text text-anchor="middle" x="1601" y="-99.8" font-family="Times,serif" font-size="14.00">GuildUserModule</text>
</g>
<!-- GuildUserModule&#45;&gt;GuildModule -->
<g id="edge4" class="edge">
<title>GuildUserModule&#45;&gt;GuildModule</title>
<path fill="none" stroke="black" d="M1601,-122.02C1601,-139.37 1601,-163 1601,-163 1601,-163 1242,-163 1242,-163"/>
<polygon fill="black" stroke="black" points="1242,-159.5 1232,-163 1242,-166.5 1242,-159.5"/>
</g>
<!-- ModerationModule -->
<g id="node5" class="node">
<title>ModerationModule</title>
<polygon fill="#8dd3c7" stroke="black" points="1524.37,-122 1521.37,-126 1500.37,-126 1497.37,-122 1399.63,-122 1399.63,-86 1524.37,-86 1524.37,-122"/>
<text text-anchor="middle" x="1462" y="-99.8" font-family="Times,serif" font-size="14.00">ModerationModule</text>
</g>
<!-- ModerationModule&#45;&gt;GuildModule -->
<g id="edge5" class="edge">
<title>ModerationModule&#45;&gt;GuildModule</title>
<path fill="none" stroke="black" d="M1462,-122.24C1462,-137.57 1462,-157 1462,-157 1462,-157 1241.89,-157 1241.89,-157"/>
<polygon fill="black" stroke="black" points="1241.89,-153.5 1231.89,-157 1241.89,-160.5 1241.89,-153.5"/>
</g>
<!-- GuildService  -->
<g id="node7" class="node">
<title>GuildService </title>
<polygon fill="#fb8072" stroke="black" points="1232.87,-252 1139.13,-252 1139.13,-216 1232.87,-216 1232.87,-252"/>
<text text-anchor="middle" x="1186" y="-229.8" font-family="Times,serif" font-size="14.00">GuildService </text>
</g>
<!-- GuildModule&#45;&gt;GuildService  -->
<g id="edge6" class="edge">
<title>GuildModule&#45;&gt;GuildService </title>
<path fill="none" stroke="black" stroke-dasharray="5,2" d="M1186,-187.11C1186,-187.11 1186,-205.99 1186,-205.99"/>
<polygon fill="black" stroke="black" points="1182.5,-205.99 1186,-215.99 1189.5,-205.99 1182.5,-205.99"/>
</g>
<!-- DmMessageHandler -->
<g id="node8" class="node">
<title>DmMessageHandler</title>
<ellipse fill="#fdb462" stroke="black" cx="1286" cy="-104" rx="90.31" ry="18"/>
<text text-anchor="middle" x="1286" y="-99.8" font-family="Times,serif" font-size="14.00">DmMessageHandler</text>
</g>
<!-- DmMessageHandler&#45;&gt;GuildModule -->
<g id="edge7" class="edge">
<title>DmMessageHandler&#45;&gt;GuildModule</title>
<path fill="none" stroke="black" d="M1213.66,-115.03C1213.66,-115.03 1213.66,-140.78 1213.66,-140.78"/>
<polygon fill="black" stroke="black" points="1210.16,-140.78 1213.66,-150.78 1217.16,-140.78 1210.16,-140.78"/>
</g>
<!-- GuildMemberEvents -->
<g id="node9" class="node">
<title>GuildMemberEvents</title>
<ellipse fill="#fdb462" stroke="black" cx="1086" cy="-104" rx="92.05" ry="18"/>
<text text-anchor="middle" x="1086" y="-99.8" font-family="Times,serif" font-size="14.00">GuildMemberEvents</text>
</g>
<!-- GuildMemberEvents&#45;&gt;GuildModule -->
<g id="edge8" class="edge">
<title>GuildMemberEvents&#45;&gt;GuildModule</title>
<path fill="none" stroke="black" d="M1159.15,-115.03C1159.15,-115.03 1159.15,-140.78 1159.15,-140.78"/>
<polygon fill="black" stroke="black" points="1155.65,-140.78 1159.15,-150.78 1162.65,-140.78 1155.65,-140.78"/>
</g>
<!-- GuildMessageHandler -->
<g id="node10" class="node">
<title>GuildMessageHandler</title>
<ellipse fill="#fdb462" stroke="black" cx="878" cy="-104" rx="97.83" ry="18"/>
<text text-anchor="middle" x="878" y="-99.8" font-family="Times,serif" font-size="14.00">GuildMessageHandler</text>
</g>
<!-- GuildMessageHandler&#45;&gt;GuildModule -->
<g id="edge9" class="edge">
<title>GuildMessageHandler&#45;&gt;GuildModule</title>
<path fill="none" stroke="black" d="M878,-122.24C878,-137.57 878,-157 878,-157 878,-157 1130.22,-157 1130.22,-157"/>
<polygon fill="black" stroke="black" points="1130.22,-160.5 1140.22,-157 1130.22,-153.5 1130.22,-160.5"/>
</g>
<!-- GuildRestrictedChannelService -->
<g id="node11" class="node">
<title>GuildRestrictedChannelService</title>
<ellipse fill="#fdb462" stroke="black" cx="629" cy="-104" rx="133.14" ry="18"/>
<text text-anchor="middle" x="629" y="-99.8" font-family="Times,serif" font-size="14.00">GuildRestrictedChannelService</text>
</g>
<!-- GuildRestrictedChannelService&#45;&gt;GuildModule -->
<g id="edge10" class="edge">
<title>GuildRestrictedChannelService&#45;&gt;GuildModule</title>
<path fill="none" stroke="black" d="M629,-122.02C629,-139.37 629,-163 629,-163 629,-163 1129.94,-163 1129.94,-163"/>
<polygon fill="black" stroke="black" points="1129.94,-166.5 1139.94,-163 1129.94,-159.5 1129.94,-166.5"/>
</g>
<!-- GuildService -->
<g id="node12" class="node">
<title>GuildService</title>
<ellipse fill="#fdb462" stroke="black" cx="416" cy="-104" rx="61.98" ry="18"/>
<text text-anchor="middle" x="416" y="-99.8" font-family="Times,serif" font-size="14.00">GuildService</text>
</g>
<!-- GuildService&#45;&gt;GuildModule -->
<g id="edge11" class="edge">
<title>GuildService&#45;&gt;GuildModule</title>
<path fill="none" stroke="black" d="M416,-122.11C416,-141.34 416,-169 416,-169 416,-169 1130.14,-169 1130.14,-169"/>
<polygon fill="black" stroke="black" points="1130.14,-172.5 1140.14,-169 1130.14,-165.5 1130.14,-172.5"/>
</g>
<!-- ModRequestFlow -->
<g id="node13" class="node">
<title>ModRequestFlow</title>
<ellipse fill="#fdb462" stroke="black" cx="256" cy="-104" rx="80.48" ry="18"/>
<text text-anchor="middle" x="256" y="-99.8" font-family="Times,serif" font-size="14.00">ModRequestFlow</text>
</g>
<!-- ModRequestFlow&#45;&gt;GuildModule -->
<g id="edge12" class="edge">
<title>ModRequestFlow&#45;&gt;GuildModule</title>
<path fill="none" stroke="black" d="M256,-122.28C256,-143.32 256,-175 256,-175 256,-175 1130.2,-175 1130.2,-175"/>
<polygon fill="black" stroke="black" points="1130.2,-178.5 1140.2,-175 1130.2,-171.5 1130.2,-178.5"/>
</g>
<!-- PrismaService -->
<g id="node14" class="node">
<title>PrismaService</title>
<ellipse fill="#fdb462" stroke="black" cx="91" cy="-104" rx="66.63" ry="18"/>
<text text-anchor="middle" x="91" y="-99.8" font-family="Times,serif" font-size="14.00">PrismaService</text>
</g>
<!-- PrismaService&#45;&gt;GuildModule -->
<g id="edge13" class="edge">
<title>PrismaService&#45;&gt;GuildModule</title>
<path fill="none" stroke="black" d="M91,-122.25C91,-145.02 91,-181 91,-181 91,-181 1130,-181 1130,-181"/>
<polygon fill="black" stroke="black" points="1130,-184.5 1140,-181 1130,-177.5 1130,-184.5"/>
</g>
</g>
</svg>
