<?xml version="1.0" encoding="UTF-8" standalone="no"?>
<!DOCTYPE svg PUBLIC "-//W3C//DTD SVG 1.1//EN"
 "http://www.w3.org/Graphics/SVG/1.1/DTD/svg11.dtd">
<!-- Generated by graphviz version 2.47.0 (20210316.0004)
 -->
<!-- Title: dependencies Pages: 1 -->
<svg width="2280pt" height="284pt"
 viewBox="0.00 0.00 2280.00 284.00" xmlns="http://www.w3.org/2000/svg" xmlns:xlink="http://www.w3.org/1999/xlink">
<g id="graph0" class="graph" transform="scale(1 1) rotate(0) translate(4 280)">
<title>dependencies</title>
<polygon fill="white" stroke="transparent" points="-4,4 -4,-280 2276,-280 2276,4 -4,4"/>
<text text-anchor="start" x="1115.01" y="-42.4" font-family="Times-12" font-weight="bold" font-size="14.00">Legend</text>
<polygon fill="#ffffb3" stroke="transparent" points="902,-10 902,-30 922,-30 922,-10 902,-10"/>
<text text-anchor="start" x="925.63" y="-15.4" font-family="Times-12" font-size="14.00"> &#160;Declarations</text>
<polygon fill="#8dd3c7" stroke="transparent" points="1015,-10 1015,-30 1035,-30 1035,-10 1015,-10"/>
<text text-anchor="start" x="1038.73" y="-15.4" font-family="Times-12" font-size="14.00"> &#160;Module</text>
<polygon fill="#80b1d3" stroke="transparent" points="1101,-10 1101,-30 1121,-30 1121,-10 1101,-10"/>
<text text-anchor="start" x="1124.78" y="-15.4" font-family="Times-12" font-size="14.00"> &#160;Bootstrap</text>
<polygon fill="#fdb462" stroke="transparent" points="1198,-10 1198,-30 1218,-30 1218,-10 1198,-10"/>
<text text-anchor="start" x="1221.67" y="-15.4" font-family="Times-12" font-size="14.00"> &#160;Providers</text>
<polygon fill="#fb8072" stroke="transparent" points="1294,-10 1294,-30 1314,-30 1314,-10 1294,-10"/>
<text text-anchor="start" x="1317.73" y="-15.4" font-family="Times-12" font-size="14.00"> &#160;Exports</text>
<g id="clust1" class="cluster">
<title>cluster_GuildModule</title>
<polygon fill="none" stroke="black" stroke-dasharray="1,5" points="8,-70 8,-268 2264,-268 2264,-70 8,-70"/>
</g>
<g id="clust6" class="cluster">
<title>cluster_GuildModule_providers</title>
<polygon fill="none" stroke="black" points="888,-78 888,-130 2256,-130 2256,-78 888,-78"/>
</g>
<g id="clust3" class="cluster">
<title>cluster_GuildModule_imports</title>
<polygon fill="none" stroke="black" points="16,-78 16,-130 880,-130 880,-78 16,-78"/>
</g>
<g id="clust4" class="cluster">
<title>cluster_GuildModule_exports</title>
<polygon fill="none" stroke="black" points="990,-208 990,-260 1100,-260 1100,-208 990,-208"/>
</g>
<!-- GuildAutoDeleteChannelModule -->
<g id="node1" class="node">
<title>GuildAutoDeleteChannelModule</title>
<polygon fill="#8dd3c7" stroke="black" points="872.12,-122 869.12,-126 848.12,-126 845.12,-122 669.88,-122 669.88,-86 872.12,-86 872.12,-122"/>
<text text-anchor="middle" x="771" y="-99.8" font-family="Times,serif" font-size="14.00">GuildAutoDeleteChannelModule</text>
</g>
<!-- GuildModule -->
<g id="node6" class="node">
<title>GuildModule</title>
<polygon fill="#8dd3c7" stroke="black" points="1090.94,-187 1087.94,-191 1066.94,-191 1063.94,-187 999.06,-187 999.06,-151 1090.94,-151 1090.94,-187"/>
<text text-anchor="middle" x="1045" y="-164.8" font-family="Times,serif" font-size="14.00">GuildModule</text>
</g>
<!-- GuildAutoDeleteChannelModule&#45;&gt;GuildModule -->
<g id="edge1" class="edge">
<title>GuildAutoDeleteChannelModule&#45;&gt;GuildModule</title>
<path fill="none" stroke="black" d="M771,-122.24C771,-137.57 771,-157 771,-157 771,-157 989.14,-157 989.14,-157"/>
<polygon fill="black" stroke="black" points="989.14,-160.5 999.14,-157 989.14,-153.5 989.14,-160.5"/>
</g>
<!-- GuildRestrictedChannelModule -->
<g id="node2" class="node">
<title>GuildRestrictedChannelModule</title>
<polygon fill="#8dd3c7" stroke="black" points="651.35,-122 648.35,-126 627.35,-126 624.35,-122 456.65,-122 456.65,-86 651.35,-86 651.35,-122"/>
<text text-anchor="middle" x="554" y="-99.8" font-family="Times,serif" font-size="14.00">GuildRestrictedChannelModule</text>
</g>
<!-- GuildRestrictedChannelModule&#45;&gt;GuildModule -->
<g id="edge2" class="edge">
<title>GuildRestrictedChannelModule&#45;&gt;GuildModule</title>
<path fill="none" stroke="black" d="M554,-122.02C554,-139.37 554,-163 554,-163 554,-163 989.25,-163 989.25,-163"/>
<polygon fill="black" stroke="black" points="989.25,-166.5 999.25,-163 989.25,-159.5 989.25,-166.5"/>
</g>
<!-- GuildSettingsModule -->
<g id="node3" class="node">
<title>GuildSettingsModule</title>
<polygon fill="#8dd3c7" stroke="black" points="438.05,-122 435.05,-126 414.05,-126 411.05,-122 301.95,-122 301.95,-86 438.05,-86 438.05,-122"/>
<text text-anchor="middle" x="370" y="-99.8" font-family="Times,serif" font-size="14.00">GuildSettingsModule</text>
</g>
<!-- GuildSettingsModule&#45;&gt;GuildModule -->
<g id="edge3" class="edge">
<title>GuildSettingsModule&#45;&gt;GuildModule</title>
<path fill="none" stroke="black" d="M370,-122.11C370,-141.34 370,-169 370,-169 370,-169 989.14,-169 989.14,-169"/>
<polygon fill="black" stroke="black" points="989.14,-172.5 999.14,-169 989.14,-165.5 989.14,-172.5"/>
</g>
<!-- GuildUserModule -->
<g id="node4" class="node">
<title>GuildUserModule</title>
<polygon fill="#8dd3c7" stroke="black" points="283.86,-122 280.86,-126 259.86,-126 256.86,-122 166.14,-122 166.14,-86 283.86,-86 283.86,-122"/>
<text text-anchor="middle" x="225" y="-99.8" font-family="Times,serif" font-size="14.00">GuildUserModule</text>
</g>
<!-- GuildUserModule&#45;&gt;GuildModule -->
<g id="edge4" class="edge">
<title>GuildUserModule&#45;&gt;GuildModule</title>
<path fill="none" stroke="black" d="M225,-122.28C225,-143.32 225,-175 225,-175 225,-175 989.16,-175 989.16,-175"/>
<polygon fill="black" stroke="black" points="989.16,-178.5 999.16,-175 989.16,-171.5 989.16,-178.5"/>
</g>
<!-- ModerationModule -->
<g id="node5" class="node">
<title>ModerationModule</title>
<polygon fill="#8dd3c7" stroke="black" points="148.37,-122 145.37,-126 124.37,-126 121.37,-122 23.63,-122 23.63,-86 148.37,-86 148.37,-122"/>
<text text-anchor="middle" x="86" y="-99.8" font-family="Times,serif" font-size="14.00">ModerationModule</text>
</g>
<!-- ModerationModule&#45;&gt;GuildModule -->
<g id="edge5" class="edge">
<title>ModerationModule&#45;&gt;GuildModule</title>
<path fill="none" stroke="black" d="M86,-122.25C86,-145.02 86,-181 86,-181 86,-181 989.07,-181 989.07,-181"/>
<polygon fill="black" stroke="black" points="989.07,-184.5 999.07,-181 989.07,-177.5 989.07,-184.5"/>
</g>
<!-- GuildService  -->
<g id="node7" class="node">
<title>GuildService </title>
<polygon fill="#fb8072" stroke="black" points="1091.87,-252 998.13,-252 998.13,-216 1091.87,-216 1091.87,-252"/>
<text text-anchor="middle" x="1045" y="-229.8" font-family="Times,serif" font-size="14.00">GuildService </text>
</g>
<!-- GuildModule&#45;&gt;GuildService  -->
<g id="edge6" class="edge">
<title>GuildModule&#45;&gt;GuildService </title>
<path fill="none" stroke="black" stroke-dasharray="5,2" d="M1045,-187.11C1045,-187.11 1045,-205.99 1045,-205.99"/>
<polygon fill="black" stroke="black" points="1041.5,-205.99 1045,-215.99 1048.5,-205.99 1041.5,-205.99"/>
</g>
<!-- DmMessageHandler -->
<g id="node8" class="node">
<title>DmMessageHandler</title>
<ellipse fill="#fdb462" stroke="black" cx="2158" cy="-104" rx="90.31" ry="18"/>
<text text-anchor="middle" x="2158" y="-99.8" font-family="Times,serif" font-size="14.00">DmMessageHandler</text>
</g>
<!-- DmMessageHandler&#45;&gt;GuildModule -->
<g id="edge7" class="edge">
<title>DmMessageHandler&#45;&gt;GuildModule</title>
<path fill="none" stroke="black" d="M2158,-122.25C2158,-145.02 2158,-181 2158,-181 2158,-181 1101.06,-181 1101.06,-181"/>
<polygon fill="black" stroke="black" points="1101.06,-177.5 1091.06,-181 1101.06,-184.5 1101.06,-177.5"/>
</g>
<!-- GuildMemberEvents -->
<g id="node9" class="node">
<title>GuildMemberEvents</title>
<ellipse fill="#fdb462" stroke="black" cx="1958" cy="-104" rx="92.05" ry="18"/>
<text text-anchor="middle" x="1958" y="-99.8" font-family="Times,serif" font-size="14.00">GuildMemberEvents</text>
</g>
<!-- GuildMemberEvents&#45;&gt;GuildModule -->
<g id="edge8" class="edge">
<title>GuildMemberEvents&#45;&gt;GuildModule</title>
<path fill="none" stroke="black" d="M1958,-122.28C1958,-143.32 1958,-175 1958,-175 1958,-175 1100.9,-175 1100.9,-175"/>
<polygon fill="black" stroke="black" points="1100.9,-171.5 1090.9,-175 1100.9,-178.5 1100.9,-171.5"/>
</g>
<!-- GuildMessageHandler -->
<g id="node10" class="node">
<title>GuildMessageHandler</title>
<ellipse fill="#fdb462" stroke="black" cx="1750" cy="-104" rx="97.83" ry="18"/>
<text text-anchor="middle" x="1750" y="-99.8" font-family="Times,serif" font-size="14.00">GuildMessageHandler</text>
</g>
<!-- GuildMessageHandler&#45;&gt;GuildModule -->
<g id="edge9" class="edge">
<title>GuildMessageHandler&#45;&gt;GuildModule</title>
<path fill="none" stroke="black" d="M1750,-122.11C1750,-141.34 1750,-169 1750,-169 1750,-169 1100.99,-169 1100.99,-169"/>
<polygon fill="black" stroke="black" points="1100.99,-165.5 1090.99,-169 1100.99,-172.5 1100.99,-165.5"/>
</g>
<!-- GuildRestrictedChannelService -->
<g id="node11" class="node">
<title>GuildRestrictedChannelService</title>
<ellipse fill="#fdb462" stroke="black" cx="1501" cy="-104" rx="133.14" ry="18"/>
<text text-anchor="middle" x="1501" y="-99.8" font-family="Times,serif" font-size="14.00">GuildRestrictedChannelService</text>
</g>
<!-- GuildRestrictedChannelService&#45;&gt;GuildModule -->
<g id="edge10" class="edge">
<title>GuildRestrictedChannelService&#45;&gt;GuildModule</title>
<path fill="none" stroke="black" d="M1501,-122.02C1501,-139.37 1501,-163 1501,-163 1501,-163 1100.81,-163 1100.81,-163"/>
<polygon fill="black" stroke="black" points="1100.81,-159.5 1090.81,-163 1100.81,-166.5 1100.81,-159.5"/>
</g>
<!-- GuildService -->
<g id="node12" class="node">
<title>GuildService</title>
<ellipse fill="#fdb462" stroke="black" cx="1288" cy="-104" rx="61.98" ry="18"/>
<text text-anchor="middle" x="1288" y="-99.8" font-family="Times,serif" font-size="14.00">GuildService</text>
</g>
<!-- GuildService&#45;&gt;GuildModule -->
<g id="edge11" class="edge">
<title>GuildService&#45;&gt;GuildModule</title>
<path fill="none" stroke="black" d="M1288,-122.24C1288,-137.57 1288,-157 1288,-157 1288,-157 1100.99,-157 1100.99,-157"/>
<polygon fill="black" stroke="black" points="1100.99,-153.5 1090.99,-157 1100.99,-160.5 1100.99,-153.5"/>
</g>
<!-- ModRequestFlow -->
<g id="node13" class="node">
<title>ModRequestFlow</title>
<ellipse fill="#fdb462" stroke="black" cx="1128" cy="-104" rx="80.48" ry="18"/>
<text text-anchor="middle" x="1128" y="-99.8" font-family="Times,serif" font-size="14.00">ModRequestFlow</text>
</g>
<!-- ModRequestFlow&#45;&gt;GuildModule -->
<g id="edge12" class="edge">
<title>ModRequestFlow&#45;&gt;GuildModule</title>
<path fill="none" stroke="black" d="M1069.24,-116.53C1069.24,-116.53 1069.24,-140.85 1069.24,-140.85"/>
<polygon fill="black" stroke="black" points="1065.74,-140.85 1069.24,-150.85 1072.74,-140.85 1065.74,-140.85"/>
</g>
<!-- PrismaService -->
<g id="node14" class="node">
<title>PrismaService</title>
<ellipse fill="#fdb462" stroke="black" cx="963" cy="-104" rx="66.63" ry="18"/>
<text text-anchor="middle" x="963" y="-99.8" font-family="Times,serif" font-size="14.00">PrismaService</text>
</g>
<!-- PrismaService&#45;&gt;GuildModule -->
<g id="edge13" class="edge">
<title>PrismaService&#45;&gt;GuildModule</title>
<path fill="none" stroke="black" d="M1014.55,-115.62C1014.55,-115.62 1014.55,-140.85 1014.55,-140.85"/>
<polygon fill="black" stroke="black" points="1011.05,-140.85 1014.55,-150.85 1018.05,-140.85 1011.05,-140.85"/>
</g>
</g>
</svg>
