<?xml version="1.0" encoding="UTF-8" standalone="no"?>
<!DOCTYPE svg PUBLIC "-//W3C//DTD SVG 1.1//EN"
 "http://www.w3.org/Graphics/SVG/1.1/DTD/svg11.dtd">
<!-- Generated by graphviz version 2.47.0 (20210316.0004)
 -->
<!-- Title: dependencies Pages: 1 -->
<svg width="504pt" height="284pt"
 viewBox="0.00 0.00 504.00 284.00" xmlns="http://www.w3.org/2000/svg" xmlns:xlink="http://www.w3.org/1999/xlink">
<g id="graph0" class="graph" transform="scale(1 1) rotate(0) translate(4 280)">
<title>dependencies</title>
<polygon fill="white" stroke="transparent" points="-4,4 -4,-280 500,-280 500,4 -4,4"/>
<text text-anchor="start" x="227.01" y="-42.4" font-family="Times-12" font-weight="bold" font-size="14.00">Legend</text>
<polygon fill="#ffffb3" stroke="transparent" points="14,-10 14,-30 34,-30 34,-10 14,-10"/>
<text text-anchor="start" x="37.63" y="-15.4" font-family="Times-12" font-size="14.00"> &#160;Declarations</text>
<polygon fill="#8dd3c7" stroke="transparent" points="127,-10 127,-30 147,-30 147,-10 127,-10"/>
<text text-anchor="start" x="150.73" y="-15.4" font-family="Times-12" font-size="14.00"> &#160;Module</text>
<polygon fill="#80b1d3" stroke="transparent" points="213,-10 213,-30 233,-30 233,-10 213,-10"/>
<text text-anchor="start" x="236.78" y="-15.4" font-family="Times-12" font-size="14.00"> &#160;Bootstrap</text>
<polygon fill="#fdb462" stroke="transparent" points="310,-10 310,-30 330,-30 330,-10 310,-10"/>
<text text-anchor="start" x="333.67" y="-15.4" font-family="Times-12" font-size="14.00"> &#160;Providers</text>
<polygon fill="#fb8072" stroke="transparent" points="406,-10 406,-30 426,-30 426,-10 406,-10"/>
<text text-anchor="start" x="429.73" y="-15.4" font-family="Times-12" font-size="14.00"> &#160;Exports</text>
<g id="clust1" class="cluster">
<title>cluster_GuildSettingsModule</title>
<polygon fill="none" stroke="black" stroke-dasharray="1,5" points="63,-70 63,-268 433,-268 433,-70 63,-70"/>
</g>
<g id="clust6" class="cluster">
<title>cluster_GuildSettingsModule_providers</title>
<polygon fill="none" stroke="black" points="71,-78 71,-130 425,-130 425,-78 71,-78"/>
</g>
<g id="clust4" class="cluster">
<title>cluster_GuildSettingsModule_exports</title>
<polygon fill="none" stroke="black" points="159,-208 159,-260 313,-260 313,-208 159,-208"/>
</g>
<!-- GuildSettingsService  -->
<g id="node1" class="node">
<title>GuildSettingsService </title>
<polygon fill="#fb8072" stroke="black" points="305.48,-252 166.52,-252 166.52,-216 305.48,-216 305.48,-252"/>
<text text-anchor="middle" x="236" y="-229.8" font-family="Times,serif" font-size="14.00">GuildSettingsService </text>
</g>
<!-- GuildSettingsModule -->
<g id="node2" class="node">
<title>GuildSettingsModule</title>
<polygon fill="#8dd3c7" stroke="black" points="304.05,-187 301.05,-191 280.05,-191 277.05,-187 167.95,-187 167.95,-151 304.05,-151 304.05,-187"/>
<text text-anchor="middle" x="236" y="-164.8" font-family="Times,serif" font-size="14.00">GuildSettingsModule</text>
</g>
<!-- GuildSettingsModule&#45;&gt;GuildSettingsService  -->
<g id="edge1" class="edge">
<title>GuildSettingsModule&#45;&gt;GuildSettingsService </title>
<path fill="none" stroke="black" stroke-dasharray="5,2" d="M236,-187.11C236,-187.11 236,-205.99 236,-205.99"/>
<polygon fill="black" stroke="black" points="232.5,-205.99 236,-215.99 239.5,-205.99 232.5,-205.99"/>
</g>
<!-- GuildSettingsService -->
<g id="node3" class="node">
<title>GuildSettingsService</title>
<ellipse fill="#fdb462" stroke="black" cx="324" cy="-104" rx="93.21" ry="18"/>
<text text-anchor="middle" x="324" y="-99.8" font-family="Times,serif" font-size="14.00">GuildSettingsService</text>
</g>
<!-- GuildSettingsService&#45;&gt;GuildSettingsModule -->
<g id="edge2" class="edge">
<title>GuildSettingsService&#45;&gt;GuildSettingsModule</title>
<path fill="none" stroke="black" d="M267.58,-118.43C267.58,-118.43 267.58,-140.89 267.58,-140.89"/>
<polygon fill="black" stroke="black" points="264.08,-140.89 267.58,-150.89 271.08,-140.89 264.08,-140.89"/>
</g>
<!-- PrismaService -->
<g id="node4" class="node">
<title>PrismaService</title>
<ellipse fill="#fdb462" stroke="black" cx="146" cy="-104" rx="66.63" ry="18"/>
<text text-anchor="middle" x="146" y="-99.8" font-family="Times,serif" font-size="14.00">PrismaService</text>
</g>
<!-- PrismaService&#45;&gt;GuildSettingsModule -->
<g id="edge3" class="edge">
<title>PrismaService&#45;&gt;GuildSettingsModule</title>
<path fill="none" stroke="black" d="M190.27,-117.78C190.27,-117.78 190.27,-140.55 190.27,-140.55"/>
<polygon fill="black" stroke="black" points="186.77,-140.55 190.27,-150.55 193.77,-140.55 186.77,-140.55"/>
</g>
</g>
</svg>
