<?xml version="1.0" encoding="UTF-8" standalone="no"?>
<!DOCTYPE svg PUBLIC "-//W3C//DTD SVG 1.1//EN"
 "http://www.w3.org/Graphics/SVG/1.1/DTD/svg11.dtd">
<!-- Generated by graphviz version 2.47.0 (20210316.0004)
 -->
<!-- Title: dependencies Pages: 1 -->
<svg width="1437pt" height="284pt"
 viewBox="0.00 0.00 1437.00 284.00" xmlns="http://www.w3.org/2000/svg" xmlns:xlink="http://www.w3.org/1999/xlink">
<g id="graph0" class="graph" transform="scale(1 1) rotate(0) translate(4 280)">
<title>dependencies</title>
<polygon fill="white" stroke="transparent" points="-4,4 -4,-280 1433,-280 1433,4 -4,4"/>
<text text-anchor="start" x="693.51" y="-42.4" font-family="Times-12" font-weight="bold" font-size="14.00">Legend</text>
<polygon fill="#ffffb3" stroke="transparent" points="480.5,-10 480.5,-30 500.5,-30 500.5,-10 480.5,-10"/>
<text text-anchor="start" x="504.13" y="-15.4" font-family="Times-12" font-size="14.00"> &#160;Declarations</text>
<polygon fill="#8dd3c7" stroke="transparent" points="593.5,-10 593.5,-30 613.5,-30 613.5,-10 593.5,-10"/>
<text text-anchor="start" x="617.23" y="-15.4" font-family="Times-12" font-size="14.00"> &#160;Module</text>
<polygon fill="#80b1d3" stroke="transparent" points="679.5,-10 679.5,-30 699.5,-30 699.5,-10 679.5,-10"/>
<text text-anchor="start" x="703.28" y="-15.4" font-family="Times-12" font-size="14.00"> &#160;Bootstrap</text>
<polygon fill="#fdb462" stroke="transparent" points="776.5,-10 776.5,-30 796.5,-30 796.5,-10 776.5,-10"/>
<text text-anchor="start" x="800.17" y="-15.4" font-family="Times-12" font-size="14.00"> &#160;Providers</text>
<polygon fill="#fb8072" stroke="transparent" points="872.5,-10 872.5,-30 892.5,-30 892.5,-10 872.5,-10"/>
<text text-anchor="start" x="896.23" y="-15.4" font-family="Times-12" font-size="14.00"> &#160;Exports</text>
<g id="clust1" class="cluster">
<title>cluster_GuildAutoDeleteChannelModule</title>
<polygon fill="none" stroke="black" stroke-dasharray="1,5" points="8,-70 8,-268 1421,-268 1421,-70 8,-70"/>
</g>
<g id="clust6" class="cluster">
<title>cluster_GuildAutoDeleteChannelModule_providers</title>
<polygon fill="none" stroke="black" points="16,-78 16,-130 1413,-130 1413,-78 16,-78"/>
</g>
<g id="clust4" class="cluster">
<title>cluster_GuildAutoDeleteChannelModule_exports</title>
<polygon fill="none" stroke="black" points="480,-208 480,-260 700,-260 700,-208 480,-208"/>
</g>
<!-- GuildAutoDeleteChannelService  -->
<g id="node1" class="node">
<title>GuildAutoDeleteChannelService </title>
<polygon fill="#fb8072" stroke="black" points="692.05,-252 487.95,-252 487.95,-216 692.05,-216 692.05,-252"/>
<text text-anchor="middle" x="590" y="-229.8" font-family="Times,serif" font-size="14.00">GuildAutoDeleteChannelService </text>
</g>
<!-- GuildAutoDeleteChannelModule -->
<g id="node2" class="node">
<title>GuildAutoDeleteChannelModule</title>
<polygon fill="#8dd3c7" stroke="black" points="691.12,-187 688.12,-191 667.12,-191 664.12,-187 488.88,-187 488.88,-151 691.12,-151 691.12,-187"/>
<text text-anchor="middle" x="590" y="-164.8" font-family="Times,serif" font-size="14.00">GuildAutoDeleteChannelModule</text>
</g>
<!-- GuildAutoDeleteChannelModule&#45;&gt;GuildAutoDeleteChannelService  -->
<g id="edge1" class="edge">
<title>GuildAutoDeleteChannelModule&#45;&gt;GuildAutoDeleteChannelService </title>
<path fill="none" stroke="black" stroke-dasharray="5,2" d="M590,-187.11C590,-187.11 590,-205.99 590,-205.99"/>
<polygon fill="black" stroke="black" points="586.5,-205.99 590,-215.99 593.5,-205.99 586.5,-205.99"/>
</g>
<!-- GuildAutoDeleteChannelService -->
<g id="node3" class="node">
<title>GuildAutoDeleteChannelService</title>
<ellipse fill="#fdb462" stroke="black" cx="1266" cy="-104" rx="138.86" ry="18"/>
<text text-anchor="middle" x="1266" y="-99.8" font-family="Times,serif" font-size="14.00">GuildAutoDeleteChannelService</text>
</g>
<!-- GuildAutoDeleteChannelService&#45;&gt;GuildAutoDeleteChannelModule -->
<g id="edge2" class="edge">
<title>GuildAutoDeleteChannelService&#45;&gt;GuildAutoDeleteChannelModule</title>
<path fill="none" stroke="black" d="M1266,-122.28C1266,-143.32 1266,-175 1266,-175 1266,-175 701.2,-175 701.2,-175"/>
<polygon fill="black" stroke="black" points="701.2,-171.5 691.2,-175 701.2,-178.5 701.2,-171.5"/>
</g>
<!-- GuildRestrictedChannelService -->
<g id="node4" class="node">
<title>GuildRestrictedChannelService</title>
<ellipse fill="#fdb462" stroke="black" cx="976" cy="-104" rx="133.14" ry="18"/>
<text text-anchor="middle" x="976" y="-99.8" font-family="Times,serif" font-size="14.00">GuildRestrictedChannelService</text>
</g>
<!-- GuildRestrictedChannelService&#45;&gt;GuildAutoDeleteChannelModule -->
<g id="edge3" class="edge">
<title>GuildRestrictedChannelService&#45;&gt;GuildAutoDeleteChannelModule</title>
<path fill="none" stroke="black" d="M976,-122.02C976,-139.37 976,-163 976,-163 976,-163 701.16,-163 701.16,-163"/>
<polygon fill="black" stroke="black" points="701.16,-159.5 691.16,-163 701.16,-166.5 701.16,-159.5"/>
</g>
<!-- GuildService -->
<g id="node5" class="node">
<title>GuildService</title>
<ellipse fill="#fdb462" stroke="black" cx="763" cy="-104" rx="61.98" ry="18"/>
<text text-anchor="middle" x="763" y="-99.8" font-family="Times,serif" font-size="14.00">GuildService</text>
</g>
<!-- GuildService&#45;&gt;GuildAutoDeleteChannelModule -->
<g id="edge4" class="edge">
<title>GuildService&#45;&gt;GuildAutoDeleteChannelModule</title>
<path fill="none" stroke="black" d="M700.76,-104C692.71,-104 687.21,-104 687.21,-104 687.21,-104 687.21,-140.89 687.21,-140.89"/>
<polygon fill="black" stroke="black" points="683.71,-140.89 687.21,-150.89 690.71,-140.89 683.71,-140.89"/>
</g>
<!-- GuildSettingsService -->
<g id="node6" class="node">
<title>GuildSettingsService</title>
<ellipse fill="#fdb462" stroke="black" cx="590" cy="-104" rx="93.21" ry="18"/>
<text text-anchor="middle" x="590" y="-99.8" font-family="Times,serif" font-size="14.00">GuildSettingsService</text>
</g>
<!-- GuildSettingsService&#45;&gt;GuildAutoDeleteChannelModule -->
<g id="edge5" class="edge">
<title>GuildSettingsService&#45;&gt;GuildAutoDeleteChannelModule</title>
<path fill="none" stroke="black" d="M590,-122.11C590,-122.11 590,-140.99 590,-140.99"/>
<polygon fill="black" stroke="black" points="586.5,-140.99 590,-150.99 593.5,-140.99 586.5,-140.99"/>
</g>
<!-- GuildUserService -->
<g id="node7" class="node">
<title>GuildUserService</title>
<ellipse fill="#fdb462" stroke="black" cx="399" cy="-104" rx="80.43" ry="18"/>
<text text-anchor="middle" x="399" y="-99.8" font-family="Times,serif" font-size="14.00">GuildUserService</text>
</g>
<!-- GuildUserService&#45;&gt;GuildAutoDeleteChannelModule -->
<g id="edge6" class="edge">
<title>GuildUserService&#45;&gt;GuildAutoDeleteChannelModule</title>
<path fill="none" stroke="black" d="M479.35,-104C487.47,-104 492.79,-104 492.79,-104 492.79,-104 492.79,-140.89 492.79,-140.89"/>
<polygon fill="black" stroke="black" points="489.29,-140.89 492.79,-150.89 496.29,-140.89 489.29,-140.89"/>
</g>
<!-- PrismaService -->
<g id="node8" class="node">
<title>PrismaService</title>
<ellipse fill="#fdb462" stroke="black" cx="234" cy="-104" rx="66.63" ry="18"/>
<text text-anchor="middle" x="234" y="-99.8" font-family="Times,serif" font-size="14.00">PrismaService</text>
</g>
<!-- PrismaService&#45;&gt;GuildAutoDeleteChannelModule -->
<g id="edge7" class="edge">
<title>PrismaService&#45;&gt;GuildAutoDeleteChannelModule</title>
<path fill="none" stroke="black" d="M234,-122.02C234,-139.37 234,-163 234,-163 234,-163 478.46,-163 478.46,-163"/>
<polygon fill="black" stroke="black" points="478.46,-166.5 488.46,-163 478.46,-159.5 478.46,-166.5"/>
</g>
<!-- TasksService -->
<g id="node9" class="node">
<title>TasksService</title>
<ellipse fill="#fdb462" stroke="black" cx="87" cy="-104" rx="62.54" ry="18"/>
<text text-anchor="middle" x="87" y="-99.8" font-family="Times,serif" font-size="14.00">TasksService</text>
</g>
<!-- TasksService&#45;&gt;GuildAutoDeleteChannelModule -->
<g id="edge8" class="edge">
<title>TasksService&#45;&gt;GuildAutoDeleteChannelModule</title>
<path fill="none" stroke="black" d="M87,-122.28C87,-143.32 87,-175 87,-175 87,-175 478.82,-175 478.82,-175"/>
<polygon fill="black" stroke="black" points="478.82,-178.5 488.82,-175 478.82,-171.5 478.82,-178.5"/>
</g>
</g>
</svg>
